<svg xmlns="http://www.w3.org/2000/svg" xmlns:xlink="http://www.w3.org/1999/xlink" contentStyleType="text/css" data-diagram-type="CLASS" height="1267.5px" preserveAspectRatio="none" style="width:1246px;height:1267px;background:#FFFFFF;" version="1.1" viewBox="0 0 1246 1267" width="1246.875px" zoomAndPan="magnify"><defs/><g><!--cluster comfyui_remote--><g class="cluster" data-entity="comfyui_remote" data-source-line="6" data-uid="ent0002" id="cluster_comfyui_remote"><path d="M7.9688,5.6378 L110.2917,5.6378 A3.5156,3.5156 0 0 1 112.6355,7.9816 L119.198,28.7201 L1237.9688,28.7201 A2.3438,2.3438 0 0 1 1240.3125,31.0638 L1240.3125,1258.6066 A2.3438,2.3438 0 0 1 1237.9688,1260.9503 L7.9688,1260.9503 A2.3438,2.3438 0 0 1 5.625,1258.6066 L5.625,7.9816 A2.3438,2.3438 0 0 1 7.9688,5.6378" fill="none" style="stroke:#000000;stroke-width:1.4063;"/><line style="stroke:#000000;stroke-width:1.4063;" x1="5.625" x2="119.198" y1="28.7201" y2="28.7201"/><text fill="#000000" font-family="sans-serif" font-size="13.125" font-weight="bold" lengthAdjust="spacing" textLength="101.3855" x="9.375" y="21.676">comfyui_remote</text></g><!--class WorkflowManager--><g class="entity" data-entity="WorkflowManager" data-source-line="7" data-uid="ent0003" id="entity_WorkflowManager"><rect fill="#F1F1F1" height="306.8591" rx="2.3438" ry="2.3438" style="stroke:#181818;stroke-width:0.4688;" width="301.9739" x="480" y="40.3253"/><ellipse cx="574.1212" cy="55.3253" fill="#C2C2C2" rx="10.3125" ry="10.3125" style="stroke:#181818;stroke-width:0.9375;"/><path d="M576.714,51.4581 Q576.8605,51.2531 577.0363,51.1505 Q577.2121,51.048 577.4171,51.048 Q577.7687,51.048 577.9884,51.297 Q578.2082,51.5314 578.2082,52.1027 L578.2082,53.465 Q578.2082,54.0363 577.9884,54.2853 Q577.7687,54.5343 577.4171,54.5343 Q577.0949,54.5343 576.9044,54.3439 Q576.714,54.1681 576.6115,53.6847 Q576.5675,53.3478 576.3918,53.172 Q576.0841,52.8204 575.5128,52.6154 Q574.9416,52.4103 574.3556,52.4103 Q573.6378,52.4103 573.0373,52.7179 Q572.4513,53.0255 571.9826,53.7286 Q571.5285,54.4318 571.5285,55.3986 L571.5285,56.424 Q571.5285,57.5812 572.3634,58.3575 Q573.1984,59.1193 574.6925,59.1193 Q575.5714,59.1193 576.1867,58.8849 Q576.5529,58.7384 576.9484,58.3282 Q577.1974,58.0792 577.3293,58.006 Q577.4757,57.9327 577.6662,57.9327 Q577.9738,57.9327 578.2082,58.1818 Q578.4572,58.4161 578.4572,58.7384 Q578.4572,59.0607 578.1349,59.4415 Q577.6662,59.9835 576.9191,60.2911 Q575.9084,60.7159 574.6925,60.7159 Q573.2716,60.7159 572.1437,60.13 Q571.2209,59.6613 570.5763,58.6652 Q569.9318,57.6544 569.9318,56.4532 L569.9318,55.3693 Q569.9318,54.1241 570.5031,53.0548 Q571.089,51.9708 572.1144,51.3995 Q573.1398,50.8136 574.297,50.8136 Q574.9855,50.8136 575.5861,50.9747 Q576.2013,51.1212 576.714,51.4581 Z " fill="#000000"/><text fill="#000000" font-family="sans-serif" font-size="13.125" lengthAdjust="spacing" textLength="105.7626" x="593.34" y="60.7599">WorkflowManager</text><line style="stroke:#181818;stroke-width:0.4688;" x1="480.9375" x2="781.0364" y1="70.3253" y2="70.3253"/><text fill="#000000" font-family="sans-serif" font-size="13.125" lengthAdjust="spacing" textLength="66.7657" x="485.625" y="88.2385">+load(path)</text><text fill="#000000" font-family="sans-serif" font-size="13.125" lengthAdjust="spacing" textLength="117.8238" x="485.625" y="105.6958">+save_prompt(path)</text><text fill="#000000" font-family="sans-serif" font-size="13.125" lengthAdjust="spacing" textLength="255.694" x="485.625" y="123.1531">+set_param_by_title(title, param, value) : int</text><text fill="#000000" font-family="sans-serif" font-size="13.125" lengthAdjust="spacing" textLength="290.7239" x="485.625" y="140.6104">+set_param_by_type(class_type, patch: Map) : int</text><text fill="#000000" font-family="sans-serif" font-size="13.125" lengthAdjust="spacing" textLength="278.3295" x="485.625" y="158.0676">+set_param_by_id(external_id, patch: Map) : int</text><text fill="#000000" font-family="sans-serif" font-size="13.125" lengthAdjust="spacing" textLength="203.1683" x="485.625" y="175.5249">+get_compiled_prompt(ctx?) : Map</text><text fill="#000000" font-family="sans-serif" font-size="13.125" lengthAdjust="spacing" textLength="163.7869" x="485.625" y="192.9822">+set_execution_context(ctx)</text><text fill="#000000" font-family="sans-serif" font-size="13.125" lengthAdjust="spacing" textLength="122.9187" x="485.625" y="210.4395">+execute(ctx?) : Map</text><line style="stroke:#181818;stroke-width:0.9375;" x1="480.9375" x2="781.0364" y1="217.4835" y2="217.4835"/><text fill="#000000" font-family="sans-serif" font-size="13.125" lengthAdjust="spacing" textLength="37.9395" x="485.625" y="235.3967">-graph</text><text fill="#000000" font-family="sans-serif" font-size="13.125" lengthAdjust="spacing" textLength="48.1549" x="485.625" y="252.854">-_loader</text><text fill="#000000" font-family="sans-serif" font-size="13.125" lengthAdjust="spacing" textLength="61.2671" x="485.625" y="270.3113">-_compiler</text><text fill="#000000" font-family="sans-serif" font-size="13.125" lengthAdjust="spacing" textLength="62.7347" x="485.625" y="287.7686">-_progress</text><text fill="#000000" font-family="sans-serif" font-size="13.125" lengthAdjust="spacing" textLength="61.2799" x="485.625" y="305.2258">-_validator</text><text fill="#000000" font-family="sans-serif" font-size="13.125" lengthAdjust="spacing" textLength="48.1613" x="485.625" y="322.6831">-_output</text><text fill="#000000" font-family="sans-serif" font-size="13.125" lengthAdjust="spacing" textLength="28.4418" x="485.625" y="340.1404">-_ctx</text></g><!--class WorkflowLoader--><g class="entity" data-entity="WorkflowLoader" data-source-line="26" data-uid="ent0004" id="entity_WorkflowLoader"><rect fill="#F1F1F1" height="141.015" rx="2.3438" ry="2.3438" style="stroke:#181818;stroke-width:0.4688;" width="176.0101" x="20.625" y="403.1378"/><ellipse cx="57.7188" cy="418.1378" fill="#C2C2C2" rx="10.3125" ry="10.3125" style="stroke:#181818;stroke-width:0.9375;"/><path d="M60.3116,414.2706 Q60.4581,414.0656 60.6339,413.963 Q60.8096,413.8605 61.0147,413.8605 Q61.3663,413.8605 61.586,414.1095 Q61.8057,414.3439 61.8057,414.9152 L61.8057,416.2775 Q61.8057,416.8488 61.586,417.0978 Q61.3663,417.3468 61.0147,417.3468 Q60.6925,417.3468 60.502,417.1564 Q60.3116,416.9806 60.2091,416.4972 Q60.1651,416.1603 59.9893,415.9845 Q59.6817,415.6329 59.1104,415.4279 Q58.5391,415.2228 57.9532,415.2228 Q57.2354,415.2228 56.6348,415.5304 Q56.0489,415.838 55.5802,416.5411 Q55.1261,417.2443 55.1261,418.2111 L55.1261,419.2365 Q55.1261,420.3937 55.961,421.17 Q56.796,421.9318 58.2901,421.9318 Q59.169,421.9318 59.7843,421.6974 Q60.1505,421.5509 60.546,421.1407 Q60.795,420.8917 60.9268,420.8185 Q61.0733,420.7452 61.2637,420.7452 Q61.5714,420.7452 61.8057,420.9943 Q62.0548,421.2286 62.0548,421.5509 Q62.0548,421.8732 61.7325,422.254 Q61.2637,422.796 60.5167,423.1036 Q59.5059,423.5284 58.2901,423.5284 Q56.8692,423.5284 55.7413,422.9425 Q54.8184,422.4738 54.1739,421.4777 Q53.5294,420.4669 53.5294,419.2657 L53.5294,418.1818 Q53.5294,416.9366 54.1007,415.8673 Q54.6866,414.7833 55.712,414.212 Q56.7374,413.6261 57.8946,413.6261 Q58.5831,413.6261 59.1837,413.7872 Q59.7989,413.9337 60.3116,414.2706 Z " fill="#000000"/><text fill="#000000" font-family="sans-serif" font-size="13.125" lengthAdjust="spacing" textLength="94.8294" x="75.9619" y="423.5724">WorkflowLoader</text><line style="stroke:#181818;stroke-width:0.4688;" x1="21.5625" x2="195.6976" y1="433.1378" y2="433.1378"/><text fill="#000000" font-family="sans-serif" font-size="13.125" lengthAdjust="spacing" textLength="156.5002" x="26.25" y="451.051">+load_from_json(path, api)</text><line style="stroke:#181818;stroke-width:0.9375;" x1="21.5625" x2="195.6976" y1="458.0951" y2="458.0951"/><line style="stroke:#181818;stroke-width:0.9375;stroke-dasharray:0.9375,1.875;" x1="21.5625" x2="56.0916" y1="474.3237" y2="474.3237"/><text fill="#000000" font-family="sans-serif" font-size="13.125" lengthAdjust="spacing" textLength="105.0769" x="56.0916" y="479.2896">attaches per node</text><line style="stroke:#181818;stroke-width:0.9375;stroke-dasharray:0.9375,1.875;" x1="161.1685" x2="195.6976" y1="474.3237" y2="474.3237"/><line style="stroke:#181818;stroke-width:0.9375;stroke-dasharray:0.9375,1.875;" x1="21.5625" x2="24.375" y1="500.5096" y2="500.5096"/><text fill="#000000" font-family="sans-serif" font-size="13.125" lengthAdjust="spacing" textLength="168.5101" x="24.375" y="505.4755">_wm_raw_spec, _wm_ext_id</text><line style="stroke:#181818;stroke-width:0.9375;stroke-dasharray:0.9375,1.875;" x1="192.8851" x2="195.6976" y1="500.5096" y2="500.5096"/><line style="stroke:#181818;stroke-width:0.9375;stroke-dasharray:0.9375,1.875;" x1="21.5625" x2="28.7553" y1="526.6956" y2="526.6956"/><text fill="#000000" font-family="sans-serif" font-size="13.125" lengthAdjust="spacing" textLength="159.7495" x="28.7553" y="531.6614">_wm_class_type, _wm_title</text><line style="stroke:#181818;stroke-width:0.9375;stroke-dasharray:0.9375,1.875;" x1="188.5048" x2="195.6976" y1="526.6956" y2="526.6956"/></g><!--class ComfyCompiler--><g class="entity" data-entity="ComfyCompiler" data-source-line="34" data-uid="ent0005" id="entity_ComfyCompiler"><rect fill="#F1F1F1" height="114.8291" rx="2.3438" ry="2.3438" style="stroke:#181818;stroke-width:0.4688;" width="166.9876" x="229.6875" y="416.2628"/><ellipse cx="264.6996" cy="431.2628" fill="#C2C2C2" rx="10.3125" ry="10.3125" style="stroke:#181818;stroke-width:0.9375;"/><path d="M267.2923,427.3956 Q267.4388,427.1906 267.6146,427.088 Q267.7904,426.9855 267.9955,426.9855 Q268.347,426.9855 268.5667,427.2345 Q268.7865,427.4689 268.7865,428.0402 L268.7865,429.4025 Q268.7865,429.9738 268.5667,430.2228 Q268.347,430.4718 267.9955,430.4718 Q267.6732,430.4718 267.4828,430.2814 Q267.2923,430.1056 267.1898,429.6222 Q267.1458,429.2853 266.9701,429.1095 Q266.6624,428.7579 266.0912,428.5529 Q265.5199,428.3478 264.9339,428.3478 Q264.2162,428.3478 263.6156,428.6554 Q263.0296,428.963 262.5609,429.6661 Q262.1068,430.3693 262.1068,431.3361 L262.1068,432.3615 Q262.1068,433.5187 262.9417,434.295 Q263.7767,435.0568 265.2708,435.0568 Q266.1497,435.0568 266.765,434.8224 Q267.1312,434.6759 267.5267,434.2657 Q267.7757,434.0167 267.9076,433.9435 Q268.054,433.8702 268.2445,433.8702 Q268.5521,433.8702 268.7865,434.1193 Q269.0355,434.3536 269.0355,434.6759 Q269.0355,434.9982 268.7132,435.379 Q268.2445,435.921 267.4974,436.2286 Q266.4867,436.6534 265.2708,436.6534 Q263.8499,436.6534 262.722,436.0675 Q261.7992,435.5988 261.1546,434.6027 Q260.5101,433.5919 260.5101,432.3907 L260.5101,431.3068 Q260.5101,430.0616 261.0814,428.9923 Q261.6673,427.9083 262.6927,427.337 Q263.7181,426.7511 264.8753,426.7511 Q265.5638,426.7511 266.1644,426.9122 Q266.7796,427.0587 267.2923,427.3956 Z " fill="#000000"/><text fill="#000000" font-family="sans-serif" font-size="13.125" lengthAdjust="spacing" textLength="90.433" x="282.48" y="436.6974">ComfyCompiler</text><line style="stroke:#181818;stroke-width:0.4688;" x1="230.625" x2="395.7376" y1="446.2628" y2="446.2628"/><text fill="#000000" font-family="sans-serif" font-size="13.125" lengthAdjust="spacing" textLength="155.7376" x="235.3125" y="464.176">+compile(graph, ctx) : Map</text><line style="stroke:#181818;stroke-width:0.9375;" x1="230.625" x2="395.7376" y1="471.2201" y2="471.2201"/><line style="stroke:#181818;stroke-width:0.9375;stroke-dasharray:0.9375,1.875;" x1="230.625" x2="247.8864" y1="487.4487" y2="487.4487"/><text fill="#000000" font-family="sans-serif" font-size="13.125" lengthAdjust="spacing" textLength="130.5899" x="247.8864" y="492.4146">uses loader-preserved</text><line style="stroke:#181818;stroke-width:0.9375;stroke-dasharray:0.9375,1.875;" x1="378.4763" x2="395.7376" y1="487.4487" y2="487.4487"/><line style="stroke:#181818;stroke-width:0.9375;stroke-dasharray:0.9375,1.875;" x1="230.625" x2="272.3387" y1="513.6346" y2="513.6346"/><text fill="#000000" font-family="sans-serif" font-size="13.125" lengthAdjust="spacing" textLength="81.6852" x="272.3387" y="518.6005">ids/titles/wires</text><line style="stroke:#181818;stroke-width:0.9375;stroke-dasharray:0.9375,1.875;" x1="354.0239" x2="395.7376" y1="513.6346" y2="513.6346"/></g><!--class ExecutorFactory--><g class="entity" data-entity="ExecutorFactory" data-source-line="41" data-uid="ent0006" id="entity_ExecutorFactory"><rect fill="#F1F1F1" height="62.4573" rx="2.3438" ry="2.3438" style="stroke:#181818;stroke-width:0.4688;" width="187.4121" x="429.375" y="442.0441"/><ellipse cx="471.3199" cy="457.0441" fill="#C2C2C2" rx="10.3125" ry="10.3125" style="stroke:#181818;stroke-width:0.9375;"/><path d="M473.9127,453.1769 Q474.0591,452.9718 474.2349,452.8693 Q474.4107,452.7667 474.6158,452.7667 Q474.9673,452.7667 475.1871,453.0157 Q475.4068,453.2501 475.4068,453.8214 L475.4068,455.1837 Q475.4068,455.755 475.1871,456.004 Q474.9673,456.2531 474.6158,456.2531 Q474.2935,456.2531 474.1031,456.0626 Q473.9127,455.8868 473.8101,455.4034 Q473.7662,455.0665 473.5904,454.8907 Q473.2828,454.5392 472.7115,454.3341 Q472.1402,454.129 471.5543,454.129 Q470.8365,454.129 470.2359,454.4366 Q469.65,454.7443 469.1812,455.4474 Q468.7271,456.1505 468.7271,457.1173 L468.7271,458.1427 Q468.7271,459.2999 469.5621,460.0763 Q470.397,460.838 471.8912,460.838 Q472.7701,460.838 473.3853,460.6036 Q473.7515,460.4572 474.147,460.047 Q474.3961,459.798 474.5279,459.7247 Q474.6744,459.6515 474.8648,459.6515 Q475.1724,459.6515 475.4068,459.9005 Q475.6558,460.1349 475.6558,460.4572 Q475.6558,460.7794 475.3336,461.1603 Q474.8648,461.7023 474.1177,462.0099 Q473.107,462.4347 471.8912,462.4347 Q470.4703,462.4347 469.3423,461.8488 Q468.4195,461.38 467.775,460.3839 Q467.1304,459.3732 467.1304,458.172 L467.1304,457.088 Q467.1304,455.8429 467.7017,454.7736 Q468.2877,453.6896 469.313,453.1183 Q470.3384,452.5323 471.4957,452.5323 Q472.1841,452.5323 472.7847,452.6935 Q473.4,452.84 473.9127,453.1769 Z " fill="#000000"/><text fill="#000000" font-family="sans-serif" font-size="13.125" lengthAdjust="spacing" textLength="95.5536" x="490.5386" y="462.4786">ExecutorFactory</text><line style="stroke:#181818;stroke-width:0.4688;" x1="430.3125" x2="615.8496" y1="472.0441" y2="472.0441"/><line style="stroke:#181818;stroke-width:0.4688;" x1="430.3125" x2="615.8496" y1="479.5441" y2="479.5441"/><text fill="#000000" font-family="sans-serif" font-size="13.125" lengthAdjust="spacing" textLength="176.1621" x="435" y="497.4573">+create(mode, ctx) : IExecutor</text></g><!--class IExecutor--><g class="entity" data-entity="IExecutor" data-source-line="45" data-uid="ent0007" id="entity_IExecutor"><rect fill="#F1F1F1" height="149.7437" rx="2.3438" ry="2.3438" style="stroke:#181818;stroke-width:0.4688;" width="169.173" x="438.75" y="600.0128"/><ellipse cx="491.6313" cy="615.0128" fill="#B1B1B1" rx="10.3125" ry="10.3125" style="stroke:#181818;stroke-width:0.9375;"/><path d="M492.5249,611.8634 L492.5249,618.1036 L494.1362,618.1036 Q494.7075,618.1036 494.9565,618.3234 Q495.2055,618.5431 495.2055,618.9093 Q495.2055,619.2609 494.9565,619.4806 Q494.7075,619.7003 494.1362,619.7003 L489.3169,619.7003 Q488.7456,619.7003 488.4966,619.4806 Q488.2475,619.2609 488.2475,618.8947 Q488.2475,618.5431 488.4966,618.3234 Q488.7456,618.1036 489.3169,618.1036 L490.9282,618.1036 L490.9282,611.8634 L489.3169,611.8634 Q488.7456,611.8634 488.4966,611.6437 Q488.2475,611.424 488.2475,611.0577 Q488.2475,610.7062 488.4966,610.4865 Q488.7456,610.2667 489.3169,610.2667 L494.1362,610.2667 Q494.7075,610.2667 494.9565,610.4865 Q495.2055,610.7062 495.2055,611.0577 Q495.2055,611.424 494.9565,611.6437 Q494.7075,611.8634 494.1362,611.8634 L492.5249,611.8634 Z " fill="#000000"/><text fill="#000000" font-family="sans-serif" font-size="13.125" font-style="italic" lengthAdjust="spacing" textLength="55.4416" x="510.8501" y="620.4474">IExecutor</text><line style="stroke:#181818;stroke-width:0.4688;" x1="439.6875" x2="606.9855" y1="630.0128" y2="630.0128"/><line style="stroke:#181818;stroke-width:0.4688;" x1="439.6875" x2="606.9855" y1="637.5128" y2="637.5128"/><text fill="#000000" font-family="sans-serif" font-size="13.125" lengthAdjust="spacing" textLength="119.2786" x="444.375" y="655.426">+prepare(graph, ctx)</text><text fill="#000000" font-family="sans-serif" font-size="13.125" lengthAdjust="spacing" textLength="157.923" x="444.375" y="672.8833">+submit(graph, ctx) : String</text><text fill="#000000" font-family="sans-serif" font-size="13.125" lengthAdjust="spacing" textLength="130.2374" x="444.375" y="690.3406">+poll(handle_id) : Map</text><text fill="#000000" font-family="sans-serif" font-size="13.125" lengthAdjust="spacing" textLength="147.009" x="444.375" y="707.7979">+collect(handle_id) : Map</text><text fill="#000000" font-family="sans-serif" font-size="13.125" lengthAdjust="spacing" textLength="111.2741" x="444.375" y="725.2551">+cancel(handle_id)</text><text fill="#000000" font-family="sans-serif" font-size="13.125" lengthAdjust="spacing" textLength="156.481" x="444.375" y="742.7124">+execute(graph, ctx) : Map</text></g><!--class LocalExecutor--><g class="entity" data-entity="LocalExecutor" data-source-line="54" data-uid="ent0008" id="entity_LocalExecutor"><rect fill="#F1F1F1" height="45" rx="2.3438" ry="2.3438" style="stroke:#181818;stroke-width:0.4688;" width="113.172" x="389.5313" y="815.1691"/><ellipse cx="403.5938" cy="830.1691" fill="#C2C2C2" rx="10.3125" ry="10.3125" style="stroke:#181818;stroke-width:0.9375;"/><path d="M406.1865,826.3019 Q406.333,826.0968 406.5088,825.9943 Q406.6846,825.8917 406.8896,825.8917 Q407.2412,825.8917 407.4609,826.1407 Q407.6807,826.3751 407.6807,826.9464 L407.6807,828.3087 Q407.6807,828.88 407.4609,829.129 Q407.2412,829.3781 406.8896,829.3781 Q406.5674,829.3781 406.377,829.1876 Q406.1865,829.0118 406.084,828.5284 Q406.04,828.1915 405.8643,828.0157 Q405.5566,827.6642 404.9854,827.4591 Q404.4141,827.254 403.8281,827.254 Q403.1104,827.254 402.5098,827.5616 Q401.9238,827.8693 401.4551,828.5724 Q401.001,829.2755 401.001,830.2423 L401.001,831.2677 Q401.001,832.4249 401.8359,833.2013 Q402.6709,833.963 404.165,833.963 Q405.0439,833.963 405.6592,833.7286 Q406.0254,833.5822 406.4209,833.172 Q406.6699,832.923 406.8018,832.8497 Q406.9482,832.7765 407.1387,832.7765 Q407.4463,832.7765 407.6807,833.0255 Q407.9297,833.2599 407.9297,833.5822 Q407.9297,833.9044 407.6074,834.2853 Q407.1387,834.8273 406.3916,835.1349 Q405.3809,835.5597 404.165,835.5597 Q402.7441,835.5597 401.6162,834.9738 Q400.6934,834.505 400.0488,833.5089 Q399.4043,832.4982 399.4043,831.297 L399.4043,830.213 Q399.4043,828.9679 399.9756,827.8986 Q400.5615,826.8146 401.5869,826.2433 Q402.6123,825.6573 403.7695,825.6573 Q404.458,825.6573 405.0586,825.8185 Q405.6738,825.965 406.1865,826.3019 Z " fill="#000000"/><text fill="#000000" font-family="sans-serif" font-size="13.125" lengthAdjust="spacing" textLength="83.172" x="416.7188" y="835.6036">LocalExecutor</text><line style="stroke:#181818;stroke-width:0.4688;" x1="390.4688" x2="501.7657" y1="845.1691" y2="845.1691"/><line style="stroke:#181818;stroke-width:0.4688;" x1="390.4688" x2="501.7657" y1="852.6691" y2="852.6691"/></g><!--class RemoteExecutor--><g class="entity" data-entity="RemoteExecutor" data-source-line="55" data-uid="ent0010" id="entity_RemoteExecutor"><rect fill="#F1F1F1" height="45" rx="2.3438" ry="2.3438" style="stroke:#181818;stroke-width:0.4688;" width="127.7518" x="536.25" y="815.1691"/><ellipse cx="550.3125" cy="830.1691" fill="#C2C2C2" rx="10.3125" ry="10.3125" style="stroke:#181818;stroke-width:0.9375;"/><path d="M552.9053,826.3019 Q553.0518,826.0968 553.2275,825.9943 Q553.4033,825.8917 553.6084,825.8917 Q553.96,825.8917 554.1797,826.1407 Q554.3994,826.3751 554.3994,826.9464 L554.3994,828.3087 Q554.3994,828.88 554.1797,829.129 Q553.96,829.3781 553.6084,829.3781 Q553.2861,829.3781 553.0957,829.1876 Q552.9053,829.0118 552.8027,828.5284 Q552.7588,828.1915 552.583,828.0157 Q552.2754,827.6642 551.7041,827.4591 Q551.1328,827.254 550.5469,827.254 Q549.8291,827.254 549.2285,827.5616 Q548.6426,827.8693 548.1738,828.5724 Q547.7197,829.2755 547.7197,830.2423 L547.7197,831.2677 Q547.7197,832.4249 548.5547,833.2013 Q549.3896,833.963 550.8838,833.963 Q551.7627,833.963 552.3779,833.7286 Q552.7441,833.5822 553.1396,833.172 Q553.3887,832.923 553.5205,832.8497 Q553.667,832.7765 553.8574,832.7765 Q554.165,832.7765 554.3994,833.0255 Q554.6484,833.2599 554.6484,833.5822 Q554.6484,833.9044 554.3262,834.2853 Q553.8574,834.8273 553.1104,835.1349 Q552.0996,835.5597 550.8838,835.5597 Q549.4629,835.5597 548.335,834.9738 Q547.4121,834.505 546.7676,833.5089 Q546.123,832.4982 546.123,831.297 L546.123,830.213 Q546.123,828.9679 546.6943,827.8986 Q547.2803,826.8146 548.3057,826.2433 Q549.3311,825.6573 550.4883,825.6573 Q551.1768,825.6573 551.7773,825.8185 Q552.3926,825.965 552.9053,826.3019 Z " fill="#000000"/><text fill="#000000" font-family="sans-serif" font-size="13.125" lengthAdjust="spacing" textLength="97.7518" x="563.4375" y="835.6036">RemoteExecutor</text><line style="stroke:#181818;stroke-width:0.4688;" x1="537.1875" x2="663.0643" y1="845.1691" y2="845.1691"/><line style="stroke:#181818;stroke-width:0.4688;" x1="537.1875" x2="663.0643" y1="852.6691" y2="852.6691"/></g><!--class ComfyServerManager--><g class="entity" data-entity="ComfyServerManager" data-source-line="57" data-uid="ent0012" id="entity_ComfyServerManager"><rect fill="#F1F1F1" height="79.9146" rx="2.3438" ry="2.3438" style="stroke:#181818;stroke-width:0.4688;" width="239.2392" x="202.0313" y="968.9191"/><ellipse cx="253.477" cy="983.9191" fill="#C2C2C2" rx="10.3125" ry="10.3125" style="stroke:#181818;stroke-width:0.9375;"/><path d="M256.0698,980.0519 Q256.2163,979.8468 256.3921,979.7443 Q256.5678,979.6417 256.7729,979.6417 Q257.1245,979.6417 257.3442,979.8907 Q257.5639,980.1251 257.5639,980.6964 L257.5639,982.0587 Q257.5639,982.63 257.3442,982.879 Q257.1245,983.1281 256.7729,983.1281 Q256.4507,983.1281 256.2602,982.9376 Q256.0698,982.7618 255.9673,982.2784 Q255.9233,981.9415 255.7475,981.7657 Q255.4399,981.4142 254.8686,981.2091 Q254.2973,981.004 253.7114,981.004 Q252.9936,981.004 252.393,981.3116 Q251.8071,981.6193 251.3383,982.3224 Q250.8842,983.0255 250.8842,983.9923 L250.8842,985.0177 Q250.8842,986.1749 251.7192,986.9513 Q252.5542,987.713 254.0483,987.713 Q254.9272,987.713 255.5424,987.4786 Q255.9087,987.3322 256.3042,986.922 Q256.5532,986.673 256.685,986.5997 Q256.8315,986.5265 257.0219,986.5265 Q257.3296,986.5265 257.5639,986.7755 Q257.813,987.0099 257.813,987.3322 Q257.813,987.6544 257.4907,988.0353 Q257.0219,988.5773 256.2749,988.8849 Q255.2641,989.3097 254.0483,989.3097 Q252.6274,989.3097 251.4995,988.7238 Q250.5766,988.255 249.9321,987.2589 Q249.2876,986.2482 249.2876,985.047 L249.2876,983.963 Q249.2876,982.7179 249.8589,981.6486 Q250.4448,980.5646 251.4702,979.9933 Q252.4956,979.4073 253.6528,979.4073 Q254.3413,979.4073 254.9419,979.5685 Q255.5571,979.715 256.0698,980.0519 Z " fill="#000000"/><text fill="#000000" font-family="sans-serif" font-size="13.125" lengthAdjust="spacing" textLength="128.3789" x="272.6958" y="989.3536">ComfyServerManager</text><line style="stroke:#181818;stroke-width:0.4688;" x1="202.9688" x2="440.3329" y1="998.9191" y2="998.9191"/><line style="stroke:#181818;stroke-width:0.4688;" x1="202.9688" x2="440.3329" y1="1006.4191" y2="1006.4191"/><text fill="#000000" font-family="sans-serif" font-size="13.125" lengthAdjust="spacing" textLength="227.9892" x="207.6563" y="1024.3323">+start(opts, config_manager?) : Handle</text><text fill="#000000" font-family="sans-serif" font-size="13.125" lengthAdjust="spacing" textLength="41.2143" x="207.6563" y="1041.7896">+stop()</text></g><!--class ComfyConnector--><g class="entity" data-entity="ComfyConnector" data-source-line="62" data-uid="ent0013" id="entity_ComfyConnector"><rect fill="#F1F1F1" height="167.2009" rx="2.3438" ry="2.3438" style="stroke:#181818;stroke-width:0.4688;" width="252.3386" x="473.9063" y="925.3253"/><ellipse cx="546.8532" cy="940.3253" fill="#C2C2C2" rx="10.3125" ry="10.3125" style="stroke:#181818;stroke-width:0.9375;"/><path d="M549.446,936.4581 Q549.5924,936.2531 549.7682,936.1505 Q549.944,936.048 550.1491,936.048 Q550.5006,936.048 550.7204,936.297 Q550.9401,936.5314 550.9401,937.1027 L550.9401,938.465 Q550.9401,939.0363 550.7204,939.2853 Q550.5006,939.5343 550.1491,939.5343 Q549.8268,939.5343 549.6364,939.3439 Q549.446,939.1681 549.3434,938.6847 Q549.2995,938.3478 549.1237,938.172 Q548.8161,937.8204 548.2448,937.6154 Q547.6735,937.4103 547.0876,937.4103 Q546.3698,937.4103 545.7692,937.7179 Q545.1833,938.0255 544.7145,938.7286 Q544.2604,939.4318 544.2604,940.3986 L544.2604,941.424 Q544.2604,942.5812 545.0954,943.3575 Q545.9303,944.1193 547.4245,944.1193 Q548.3034,944.1193 548.9186,943.8849 Q549.2848,943.7384 549.6803,943.3282 Q549.9294,943.0792 550.0612,943.006 Q550.2077,942.9327 550.3981,942.9327 Q550.7057,942.9327 550.9401,943.1818 Q551.1891,943.4161 551.1891,943.7384 Q551.1891,944.0607 550.8669,944.4415 Q550.3981,944.9835 549.651,945.2911 Q548.6403,945.7159 547.4245,945.7159 Q546.0036,945.7159 544.8756,945.13 Q543.9528,944.6613 543.3083,943.6652 Q542.6637,942.6544 542.6637,941.4532 L542.6637,940.3693 Q542.6637,939.1241 543.235,938.0548 Q543.821,936.9708 544.8463,936.3995 Q545.8717,935.8136 547.029,935.8136 Q547.7174,935.8136 548.318,935.9747 Q548.9333,936.1212 549.446,936.4581 Z " fill="#000000"/><text fill="#000000" font-family="sans-serif" font-size="13.125" lengthAdjust="spacing" textLength="98.476" x="566.0719" y="945.7599">ComfyConnector</text><line style="stroke:#181818;stroke-width:0.4688;" x1="474.8438" x2="725.3073" y1="955.3253" y2="955.3253"/><line style="stroke:#181818;stroke-width:0.4688;" x1="474.8438" x2="725.3073" y1="962.8253" y2="962.8253"/><text fill="#000000" font-family="sans-serif" font-size="13.125" lengthAdjust="spacing" textLength="45.6042" x="479.5313" y="980.7385">+open()</text><text fill="#000000" font-family="sans-serif" font-size="13.125" lengthAdjust="spacing" textLength="241.0886" x="479.5313" y="998.1958">+post_workflow(prompt, client_id) : String</text><text fill="#000000" font-family="sans-serif" font-size="13.125" lengthAdjust="spacing" textLength="189.2999" x="479.5313" y="1015.6531">+subscribe(prompt_id, observer)</text><text fill="#000000" font-family="sans-serif" font-size="13.125" lengthAdjust="spacing" textLength="146.2592" x="479.5313" y="1033.1104">+status(prompt_id) : Map</text><text fill="#000000" font-family="sans-serif" font-size="13.125" lengthAdjust="spacing" textLength="190.0497" x="479.5313" y="1050.5676">+fetch_outputs(prompt_id) : Map</text><text fill="#000000" font-family="sans-serif" font-size="13.125" lengthAdjust="spacing" textLength="112.7097" x="479.5313" y="1068.0249">+cancel(prompt_id)</text><text fill="#000000" font-family="sans-serif" font-size="13.125" lengthAdjust="spacing" textLength="47.0462" x="479.5313" y="1085.4822">+close()</text></g><!--class ComfyRestClient--><g class="entity" data-entity="ComfyRestClient" data-source-line="72" data-uid="ent0014" id="entity_ComfyRestClient"><rect fill="#F1F1F1" height="97.3718" rx="2.3438" ry="2.3438" style="stroke:#181818;stroke-width:0.4688;" width="170.6662" x="491.25" y="1148.4503"/><ellipse cx="524.3039" cy="1163.4503" fill="#C2C2C2" rx="10.3125" ry="10.3125" style="stroke:#181818;stroke-width:0.9375;"/><path d="M526.8967,1159.5831 Q527.0431,1159.3781 527.2189,1159.2755 Q527.3947,1159.173 527.5998,1159.173 Q527.9513,1159.173 528.1711,1159.422 Q528.3908,1159.6564 528.3908,1160.2277 L528.3908,1161.59 Q528.3908,1162.1613 528.1711,1162.4103 Q527.9513,1162.6593 527.5998,1162.6593 Q527.2775,1162.6593 527.0871,1162.4689 Q526.8967,1162.2931 526.7941,1161.8097 Q526.7502,1161.4728 526.5744,1161.297 Q526.2668,1160.9454 525.6955,1160.7404 Q525.1242,1160.5353 524.5383,1160.5353 Q523.8205,1160.5353 523.2199,1160.8429 Q522.634,1161.1505 522.1652,1161.8536 Q521.7111,1162.5568 521.7111,1163.5236 L521.7111,1164.549 Q521.7111,1165.7062 522.5461,1166.4825 Q523.381,1167.2443 524.8752,1167.2443 Q525.7541,1167.2443 526.3693,1167.0099 Q526.7355,1166.8634 527.131,1166.4532 Q527.3801,1166.2042 527.5119,1166.131 Q527.6584,1166.0577 527.8488,1166.0577 Q528.1564,1166.0577 528.3908,1166.3068 Q528.6398,1166.5411 528.6398,1166.8634 Q528.6398,1167.1857 528.3176,1167.5665 Q527.8488,1168.1085 527.1017,1168.4161 Q526.091,1168.8409 524.8752,1168.8409 Q523.4543,1168.8409 522.3263,1168.255 Q521.4035,1167.7863 520.759,1166.7902 Q520.1144,1165.7794 520.1144,1164.5782 L520.1144,1163.4943 Q520.1144,1162.2491 520.6857,1161.1798 Q521.2717,1160.0958 522.297,1159.5245 Q523.3224,1158.9386 524.4797,1158.9386 Q525.1681,1158.9386 525.7687,1159.0997 Q526.384,1159.2462 526.8967,1159.5831 Z " fill="#000000"/><text fill="#000000" font-family="sans-serif" font-size="13.125" lengthAdjust="spacing" textLength="98.4631" x="541.6492" y="1168.8849">ComfyRestClient</text><line style="stroke:#181818;stroke-width:0.4688;" x1="492.1875" x2="660.9787" y1="1178.4503" y2="1178.4503"/><line style="stroke:#181818;stroke-width:0.4688;" x1="492.1875" x2="660.9787" y1="1185.9503" y2="1185.9503"/><text fill="#000000" font-family="sans-serif" font-size="13.125" lengthAdjust="spacing" textLength="121.4832" x="496.875" y="1203.8635">+get(endpoint) : Map</text><text fill="#000000" font-family="sans-serif" font-size="13.125" lengthAdjust="spacing" textLength="159.4162" x="496.875" y="1221.3208">+post(endpoint, json) : Map</text><text fill="#000000" font-family="sans-serif" font-size="13.125" lengthAdjust="spacing" textLength="130.2182" x="496.875" y="1238.7781">+get_bytes(url) : bytes</text></g><!--class ComfyWsClient--><g class="entity" data-entity="ComfyWsClient" data-source-line="78" data-uid="ent0015" id="entity_ComfyWsClient"><rect fill="#F1F1F1" height="97.3718" rx="2.3438" ry="2.3438" style="stroke:#181818;stroke-width:0.4688;" width="163.3475" x="694.6875" y="1148.4503"/><ellipse cx="728.0644" cy="1163.4503" fill="#C2C2C2" rx="10.3125" ry="10.3125" style="stroke:#181818;stroke-width:0.9375;"/><path d="M730.6572,1159.5831 Q730.8036,1159.3781 730.9794,1159.2755 Q731.1552,1159.173 731.3603,1159.173 Q731.7118,1159.173 731.9316,1159.422 Q732.1513,1159.6564 732.1513,1160.2277 L732.1513,1161.59 Q732.1513,1162.1613 731.9316,1162.4103 Q731.7118,1162.6593 731.3603,1162.6593 Q731.038,1162.6593 730.8476,1162.4689 Q730.6572,1162.2931 730.5546,1161.8097 Q730.5107,1161.4728 730.3349,1161.297 Q730.0273,1160.9454 729.456,1160.7404 Q728.8847,1160.5353 728.2988,1160.5353 Q727.581,1160.5353 726.9804,1160.8429 Q726.3945,1161.1505 725.9257,1161.8536 Q725.4716,1162.5568 725.4716,1163.5236 L725.4716,1164.549 Q725.4716,1165.7062 726.3066,1166.4825 Q727.1415,1167.2443 728.6357,1167.2443 Q729.5146,1167.2443 730.1298,1167.0099 Q730.496,1166.8634 730.8915,1166.4532 Q731.1405,1166.2042 731.2724,1166.131 Q731.4189,1166.0577 731.6093,1166.0577 Q731.9169,1166.0577 732.1513,1166.3068 Q732.4003,1166.5411 732.4003,1166.8634 Q732.4003,1167.1857 732.078,1167.5665 Q731.6093,1168.1085 730.8622,1168.4161 Q729.8515,1168.8409 728.6357,1168.8409 Q727.2148,1168.8409 726.0868,1168.255 Q725.164,1167.7863 724.5195,1166.7902 Q723.8749,1165.7794 723.8749,1164.5782 L723.8749,1163.4943 Q723.8749,1162.2491 724.4462,1161.1798 Q725.0322,1160.0958 726.0575,1159.5245 Q727.0829,1158.9386 728.2402,1158.9386 Q728.9286,1158.9386 729.5292,1159.0997 Q730.1445,1159.2462 730.6572,1159.5831 Z " fill="#000000"/><text fill="#000000" font-family="sans-serif" font-size="13.125" lengthAdjust="spacing" textLength="90.4266" x="745.4815" y="1168.8849">ComfyWsClient</text><line style="stroke:#181818;stroke-width:0.4688;" x1="695.625" x2="857.0975" y1="1178.4503" y2="1178.4503"/><line style="stroke:#181818;stroke-width:0.4688;" x1="695.625" x2="857.0975" y1="1185.9503" y2="1185.9503"/><text fill="#000000" font-family="sans-serif" font-size="13.125" lengthAdjust="spacing" textLength="45.6042" x="700.3125" y="1203.8635">+open()</text><text fill="#000000" font-family="sans-serif" font-size="13.125" lengthAdjust="spacing" textLength="152.0975" x="700.3125" y="1221.3208">+subscribe(prompt_id, cb)</text><text fill="#000000" font-family="sans-serif" font-size="13.125" lengthAdjust="spacing" textLength="47.0462" x="700.3125" y="1238.7781">+close()</text></g><!--class NodeCoreAPI--><g class="entity" data-entity="NodeCoreAPI" data-source-line="84" data-uid="ent0016" id="entity_NodeCoreAPI"><rect fill="#F1F1F1" height="79.9146" rx="2.3438" ry="2.3438" style="stroke:#181818;stroke-width:0.4688;" width="111.5717" x="52.9688" y="635.1691"/><ellipse cx="67.2974" cy="650.1691" fill="#C2C2C2" rx="10.3125" ry="10.3125" style="stroke:#181818;stroke-width:0.9375;"/><path d="M69.8902,646.3019 Q70.0367,646.0968 70.2124,645.9943 Q70.3882,645.8917 70.5933,645.8917 Q70.9449,645.8917 71.1646,646.1407 Q71.3843,646.3751 71.3843,646.9464 L71.3843,648.3087 Q71.3843,648.88 71.1646,649.129 Q70.9449,649.3781 70.5933,649.3781 Q70.271,649.3781 70.0806,649.1876 Q69.8902,649.0118 69.7876,648.5284 Q69.7437,648.1915 69.5679,648.0157 Q69.2603,647.6642 68.689,647.4591 Q68.1177,647.254 67.5318,647.254 Q66.814,647.254 66.2134,647.5616 Q65.6275,647.8693 65.1587,648.5724 Q64.7046,649.2755 64.7046,650.2423 L64.7046,651.2677 Q64.7046,652.4249 65.5396,653.2013 Q66.3745,653.963 67.8687,653.963 Q68.7476,653.963 69.3628,653.7286 Q69.729,653.5822 70.1245,653.172 Q70.3736,652.923 70.5054,652.8497 Q70.6519,652.7765 70.8423,652.7765 Q71.1499,652.7765 71.3843,653.0255 Q71.6333,653.2599 71.6333,653.5822 Q71.6333,653.9044 71.3111,654.2853 Q70.8423,654.8273 70.0952,655.1349 Q69.0845,655.5597 67.8687,655.5597 Q66.4478,655.5597 65.3199,654.9738 Q64.397,654.505 63.7525,653.5089 Q63.1079,652.4982 63.1079,651.297 L63.1079,650.213 Q63.1079,648.9679 63.6792,647.8986 Q64.2652,646.8146 65.2906,646.2433 Q66.3159,645.6573 67.4732,645.6573 Q68.1617,645.6573 68.7622,645.8185 Q69.3775,645.965 69.8902,646.3019 Z " fill="#000000"/><text fill="#000000" font-family="sans-serif" font-size="13.125" lengthAdjust="spacing" textLength="80.9802" x="80.4815" y="655.6036">NodeCoreAPI</text><line style="stroke:#181818;stroke-width:0.4688;" x1="53.9063" x2="163.6029" y1="665.1691" y2="665.1691"/><line style="stroke:#181818;stroke-width:0.4688;" x1="53.9063" x2="163.6029" y1="672.6691" y2="672.6691"/><text fill="#000000" font-family="sans-serif" font-size="13.125" lengthAdjust="spacing" textLength="100.3217" x="58.5938" y="690.5823">+create_node(...)</text><text fill="#000000" font-family="sans-serif" font-size="13.125" lengthAdjust="spacing" textLength="72.5912" x="58.5938" y="708.0396">+graph_ref()</text></g><!--class NodeRegistry--><g class="entity" data-entity="NodeRegistry" data-source-line="89" data-uid="ent0017" id="entity_NodeRegistry"><rect fill="#F1F1F1" height="62.4573" rx="2.3438" ry="2.3438" style="stroke:#181818;stroke-width:0.4688;" width="119.5633" x="48.75" y="806.2628"/><ellipse cx="67.3353" cy="821.2628" fill="#C2C2C2" rx="10.3125" ry="10.3125" style="stroke:#181818;stroke-width:0.9375;"/><path d="M69.9281,817.3956 Q70.0746,817.1906 70.2503,817.088 Q70.4261,816.9855 70.6312,816.9855 Q70.9828,816.9855 71.2025,817.2345 Q71.4222,817.4689 71.4222,818.0402 L71.4222,819.4025 Q71.4222,819.9738 71.2025,820.2228 Q70.9828,820.4718 70.6312,820.4718 Q70.3089,820.4718 70.1185,820.2814 Q69.9281,820.1056 69.8255,819.6222 Q69.7816,819.2853 69.6058,819.1095 Q69.2982,818.7579 68.7269,818.5529 Q68.1556,818.3478 67.5697,818.3478 Q66.8519,818.3478 66.2513,818.6554 Q65.6654,818.963 65.1966,819.6661 Q64.7425,820.3693 64.7425,821.3361 L64.7425,822.3615 Q64.7425,823.5187 65.5775,824.295 Q66.4124,825.0568 67.9066,825.0568 Q68.7855,825.0568 69.4007,824.8224 Q69.7669,824.6759 70.1624,824.2657 Q70.4115,824.0167 70.5433,823.9435 Q70.6898,823.8702 70.8802,823.8702 Q71.1878,823.8702 71.4222,824.1193 Q71.6712,824.3536 71.6712,824.6759 Q71.6712,824.9982 71.349,825.379 Q70.8802,825.921 70.1331,826.2286 Q69.1224,826.6534 67.9066,826.6534 Q66.4857,826.6534 65.3578,826.0675 Q64.4349,825.5988 63.7904,824.6027 Q63.1458,823.5919 63.1458,822.3907 L63.1458,821.3068 Q63.1458,820.0616 63.7171,818.9923 Q64.3031,817.9083 65.3285,817.337 Q66.3539,816.7511 67.5111,816.7511 Q68.1996,816.7511 68.8001,816.9122 Q69.4154,817.0587 69.9281,817.3956 Z " fill="#000000"/><text fill="#000000" font-family="sans-serif" font-size="13.125" lengthAdjust="spacing" textLength="79.5126" x="81.4654" y="826.6974">NodeRegistry</text><line style="stroke:#181818;stroke-width:0.4688;" x1="49.6875" x2="167.3758" y1="836.2628" y2="836.2628"/><line style="stroke:#181818;stroke-width:0.4688;" x1="49.6875" x2="167.3758" y1="843.7628" y2="843.7628"/><text fill="#000000" font-family="sans-serif" font-size="13.125" lengthAdjust="spacing" textLength="108.3133" x="54.375" y="861.676">+register(type, cls)</text></g><!--class ValidationService--><g class="entity" data-entity="ValidationService" data-source-line="93" data-uid="ent0018" id="entity_ValidationService"><rect fill="#F1F1F1" height="62.4573" rx="2.3438" ry="2.3438" style="stroke:#181818;stroke-width:0.4688;" width="178.6963" x="650.1563" y="442.0441"/><ellipse cx="685.4971" cy="457.0441" fill="#C2C2C2" rx="10.3125" ry="10.3125" style="stroke:#181818;stroke-width:0.9375;"/><path d="M688.0898,453.1769 Q688.2363,452.9718 688.4121,452.8693 Q688.5879,452.7667 688.793,452.7667 Q689.1445,452.7667 689.3643,453.0157 Q689.584,453.2501 689.584,453.8214 L689.584,455.1837 Q689.584,455.755 689.3643,456.004 Q689.1445,456.2531 688.793,456.2531 Q688.4707,456.2531 688.2803,456.0626 Q688.0898,455.8868 687.9873,455.4034 Q687.9434,455.0665 687.7676,454.8907 Q687.46,454.5392 686.8887,454.3341 Q686.3174,454.129 685.7314,454.129 Q685.0137,454.129 684.4131,454.4366 Q683.8271,454.7443 683.3584,455.4474 Q682.9043,456.1505 682.9043,457.1173 L682.9043,458.1427 Q682.9043,459.2999 683.7393,460.0763 Q684.5742,460.838 686.0684,460.838 Q686.9473,460.838 687.5625,460.6036 Q687.9287,460.4572 688.3242,460.047 Q688.5732,459.798 688.7051,459.7247 Q688.8516,459.6515 689.042,459.6515 Q689.3496,459.6515 689.584,459.9005 Q689.833,460.1349 689.833,460.4572 Q689.833,460.7794 689.5107,461.1603 Q689.042,461.7023 688.2949,462.0099 Q687.2842,462.4347 686.0684,462.4347 Q684.6475,462.4347 683.5195,461.8488 Q682.5967,461.38 681.9521,460.3839 Q681.3076,459.3732 681.3076,458.172 L681.3076,457.088 Q681.3076,455.8429 681.8789,454.7736 Q682.4648,453.6896 683.4902,453.1183 Q684.5156,452.5323 685.6729,452.5323 Q686.3613,452.5323 686.9619,452.6935 Q687.5771,452.84 688.0898,453.1769 Z " fill="#000000"/><text fill="#000000" font-family="sans-serif" font-size="13.125" lengthAdjust="spacing" textLength="101.4111" x="703.3506" y="462.4786">ValidationService</text><line style="stroke:#181818;stroke-width:0.4688;" x1="651.0938" x2="827.915" y1="472.0441" y2="472.0441"/><line style="stroke:#181818;stroke-width:0.4688;" x1="651.0938" x2="827.915" y1="479.5441" y2="479.5441"/><text fill="#000000" font-family="sans-serif" font-size="13.125" lengthAdjust="spacing" textLength="167.4463" x="655.7813" y="497.4573">+validate_graph(graph) : List</text></g><!--class ProgressService--><g class="entity" data-entity="ProgressService" data-source-line="97" data-uid="ent0019" id="entity_ProgressService"><rect fill="#F1F1F1" height="62.4573" rx="2.3438" ry="2.3438" style="stroke:#181818;stroke-width:0.4688;" width="126.2842" x="862.0313" y="442.0441"/><ellipse cx="876.0938" cy="457.0441" fill="#C2C2C2" rx="10.3125" ry="10.3125" style="stroke:#181818;stroke-width:0.9375;"/><path d="M878.6865,453.1769 Q878.833,452.9718 879.0088,452.8693 Q879.1846,452.7667 879.3896,452.7667 Q879.7412,452.7667 879.9609,453.0157 Q880.1807,453.2501 880.1807,453.8214 L880.1807,455.1837 Q880.1807,455.755 879.9609,456.004 Q879.7412,456.2531 879.3896,456.2531 Q879.0674,456.2531 878.877,456.0626 Q878.6865,455.8868 878.584,455.4034 Q878.54,455.0665 878.3643,454.8907 Q878.0566,454.5392 877.4854,454.3341 Q876.9141,454.129 876.3281,454.129 Q875.6104,454.129 875.0098,454.4366 Q874.4238,454.7443 873.9551,455.4474 Q873.501,456.1505 873.501,457.1173 L873.501,458.1427 Q873.501,459.2999 874.3359,460.0763 Q875.1709,460.838 876.665,460.838 Q877.5439,460.838 878.1592,460.6036 Q878.5254,460.4572 878.9209,460.047 Q879.1699,459.798 879.3018,459.7247 Q879.4482,459.6515 879.6387,459.6515 Q879.9463,459.6515 880.1807,459.9005 Q880.4297,460.1349 880.4297,460.4572 Q880.4297,460.7794 880.1074,461.1603 Q879.6387,461.7023 878.8916,462.0099 Q877.8809,462.4347 876.665,462.4347 Q875.2441,462.4347 874.1162,461.8488 Q873.1934,461.38 872.5488,460.3839 Q871.9043,459.3732 871.9043,458.172 L871.9043,457.088 Q871.9043,455.8429 872.4756,454.7736 Q873.0615,453.6896 874.0869,453.1183 Q875.1123,452.5323 876.2695,452.5323 Q876.958,452.5323 877.5586,452.6935 Q878.1738,452.84 878.6865,453.1769 Z " fill="#000000"/><text fill="#000000" font-family="sans-serif" font-size="13.125" lengthAdjust="spacing" textLength="96.2842" x="889.2188" y="462.4786">ProgressService</text><line style="stroke:#181818;stroke-width:0.4688;" x1="862.9688" x2="987.3779" y1="472.0441" y2="472.0441"/><line style="stroke:#181818;stroke-width:0.4688;" x1="862.9688" x2="987.3779" y1="479.5441" y2="479.5441"/><text fill="#000000" font-family="sans-serif" font-size="13.125" lengthAdjust="spacing" textLength="88.6578" x="867.6563" y="497.4573">+update(event)</text></g><!--class OutputHandler--><g class="entity" data-entity="OutputHandler" data-source-line="101" data-uid="ent0020" id="entity_OutputHandler"><rect fill="#F1F1F1" height="62.4573" rx="2.3438" ry="2.3438" style="stroke:#181818;stroke-width:0.4688;" width="203.4787" x="1021.4063" y="442.0441"/><ellipse cx="1076.4793" cy="457.0441" fill="#C2C2C2" rx="10.3125" ry="10.3125" style="stroke:#181818;stroke-width:0.9375;"/><path d="M1079.0721,453.1769 Q1079.2186,452.9718 1079.3944,452.8693 Q1079.5702,452.7667 1079.7752,452.7667 Q1080.1268,452.7667 1080.3465,453.0157 Q1080.5663,453.2501 1080.5663,453.8214 L1080.5663,455.1837 Q1080.5663,455.755 1080.3465,456.004 Q1080.1268,456.2531 1079.7752,456.2531 Q1079.453,456.2531 1079.2625,456.0626 Q1079.0721,455.8868 1078.9696,455.4034 Q1078.9256,455.0665 1078.7498,454.8907 Q1078.4422,454.5392 1077.8709,454.3341 Q1077.2997,454.129 1076.7137,454.129 Q1075.9959,454.129 1075.3954,454.4366 Q1074.8094,454.7443 1074.3407,455.4474 Q1073.8866,456.1505 1073.8866,457.1173 L1073.8866,458.1427 Q1073.8866,459.2999 1074.7215,460.0763 Q1075.5565,460.838 1077.0506,460.838 Q1077.9295,460.838 1078.5448,460.6036 Q1078.911,460.4572 1079.3065,460.047 Q1079.5555,459.798 1079.6873,459.7247 Q1079.8338,459.6515 1080.0243,459.6515 Q1080.3319,459.6515 1080.5663,459.9005 Q1080.8153,460.1349 1080.8153,460.4572 Q1080.8153,460.7794 1080.493,461.1603 Q1080.0243,461.7023 1079.2772,462.0099 Q1078.2664,462.4347 1077.0506,462.4347 Q1075.6297,462.4347 1074.5018,461.8488 Q1073.5789,461.38 1072.9344,460.3839 Q1072.2899,459.3732 1072.2899,458.172 L1072.2899,457.088 Q1072.2899,455.8429 1072.8612,454.7736 Q1073.4471,453.6896 1074.4725,453.1183 Q1075.4979,452.5323 1076.6551,452.5323 Q1077.3436,452.5323 1077.9442,452.6935 Q1078.5594,452.84 1079.0721,453.1769 Z " fill="#000000"/><text fill="#000000" font-family="sans-serif" font-size="13.125" lengthAdjust="spacing" textLength="85.3638" x="1095.6981" y="462.4786">OutputHandler</text><line style="stroke:#181818;stroke-width:0.4688;" x1="1022.3438" x2="1223.9474" y1="472.0441" y2="472.0441"/><line style="stroke:#181818;stroke-width:0.4688;" x1="1022.3438" x2="1223.9474" y1="479.5441" y2="479.5441"/><text fill="#000000" font-family="sans-serif" font-size="13.125" lengthAdjust="spacing" textLength="192.2287" x="1027.0313" y="497.4573">+store(handle_id, artifacts) : Map</text></g><!--class ConfigManager--><g class="entity" data-entity="ConfigManager" data-source-line="105" data-uid="ent0021" id="entity_ConfigManager"><rect fill="#F1F1F1" height="79.9146" rx="2.3438" ry="2.3438" style="stroke:#181818;stroke-width:0.4688;" width="228.9981" x="207.1875" y="1157.3566"/><ellipse cx="272.8317" cy="1172.3566" fill="#C2C2C2" rx="10.3125" ry="10.3125" style="stroke:#181818;stroke-width:0.9375;"/><path d="M275.4245,1168.4894 Q275.571,1168.2843 275.7468,1168.1818 Q275.9225,1168.0792 276.1276,1168.0792 Q276.4792,1168.0792 276.6989,1168.3282 Q276.9186,1168.5626 276.9186,1169.1339 L276.9186,1170.4962 Q276.9186,1171.0675 276.6989,1171.3165 Q276.4792,1171.5656 276.1276,1171.5656 Q275.8054,1171.5656 275.6149,1171.3751 Q275.4245,1171.1993 275.322,1170.7159 Q275.278,1170.379 275.1022,1170.2032 Q274.7946,1169.8517 274.2233,1169.6466 Q273.652,1169.4415 273.0661,1169.4415 Q272.3483,1169.4415 271.7477,1169.7491 Q271.1618,1170.0568 270.6931,1170.7599 Q270.239,1171.463 270.239,1172.4298 L270.239,1173.4552 Q270.239,1174.6124 271.0739,1175.3888 Q271.9089,1176.1505 273.403,1176.1505 Q274.2819,1176.1505 274.8972,1175.9161 Q275.2634,1175.7697 275.6589,1175.3595 Q275.9079,1175.1105 276.0397,1175.0372 Q276.1862,1174.964 276.3766,1174.964 Q276.6843,1174.964 276.9186,1175.213 Q277.1677,1175.4474 277.1677,1175.7697 Q277.1677,1176.0919 276.8454,1176.4728 Q276.3766,1177.0148 275.6296,1177.3224 Q274.6188,1177.7472 273.403,1177.7472 Q271.9821,1177.7472 270.8542,1177.1613 Q269.9313,1176.6925 269.2868,1175.6964 Q268.6423,1174.6857 268.6423,1173.4845 L268.6423,1172.4005 Q268.6423,1171.1554 269.2136,1170.0861 Q269.7995,1169.0021 270.8249,1168.4308 Q271.8503,1167.8448 273.0075,1167.8448 Q273.696,1167.8448 274.2966,1168.006 Q274.9118,1168.1525 275.4245,1168.4894 Z " fill="#000000"/><text fill="#000000" font-family="sans-serif" font-size="13.125" lengthAdjust="spacing" textLength="89.7409" x="292.0505" y="1177.7911">ConfigManager</text><line style="stroke:#181818;stroke-width:0.4688;" x1="208.125" x2="435.2481" y1="1187.3566" y2="1187.3566"/><line style="stroke:#181818;stroke-width:0.4688;" x1="208.125" x2="435.2481" y1="1194.8566" y2="1194.8566"/><text fill="#000000" font-family="sans-serif" font-size="13.125" lengthAdjust="spacing" textLength="144.061" x="212.8125" y="1212.7698">+finalize() : ComfyConfig</text><text fill="#000000" font-family="sans-serif" font-size="13.125" lengthAdjust="spacing" textLength="217.7481" x="212.8125" y="1230.2271">+write_extra_paths_yaml(cfg) : String</text></g><!--class ExecutionContext--><g class="entity" data-entity="ExecutionContext" data-source-line="110" data-uid="ent0022" id="entity_ExecutionContext"><rect fill="#F1F1F1" height="114.8291" rx="2.3438" ry="2.3438" style="stroke:#181818;stroke-width:0.4688;" width="132.8723" x="221.25" y="136.4191"/><ellipse cx="235.3125" cy="151.4191" fill="#C2C2C2" rx="10.3125" ry="10.3125" style="stroke:#181818;stroke-width:0.9375;"/><path d="M237.9053,147.5519 Q238.0518,147.3468 238.2275,147.2443 Q238.4033,147.1417 238.6084,147.1417 Q238.96,147.1417 239.1797,147.3907 Q239.3994,147.6251 239.3994,148.1964 L239.3994,149.5587 Q239.3994,150.13 239.1797,150.379 Q238.96,150.6281 238.6084,150.6281 Q238.2861,150.6281 238.0957,150.4376 Q237.9053,150.2618 237.8027,149.7784 Q237.7588,149.4415 237.583,149.2657 Q237.2754,148.9142 236.7041,148.7091 Q236.1328,148.504 235.5469,148.504 Q234.8291,148.504 234.2285,148.8116 Q233.6426,149.1193 233.1738,149.8224 Q232.7197,150.5255 232.7197,151.4923 L232.7197,152.5177 Q232.7197,153.6749 233.5547,154.4513 Q234.3896,155.213 235.8838,155.213 Q236.7627,155.213 237.3779,154.9786 Q237.7441,154.8322 238.1396,154.422 Q238.3887,154.173 238.5205,154.0997 Q238.667,154.0265 238.8574,154.0265 Q239.165,154.0265 239.3994,154.2755 Q239.6484,154.5099 239.6484,154.8322 Q239.6484,155.1544 239.3262,155.5353 Q238.8574,156.0773 238.1104,156.3849 Q237.0996,156.8097 235.8838,156.8097 Q234.4629,156.8097 233.335,156.2238 Q232.4121,155.755 231.7676,154.7589 Q231.123,153.7482 231.123,152.547 L231.123,151.463 Q231.123,150.2179 231.6943,149.1486 Q232.2803,148.0646 233.3057,147.4933 Q234.3311,146.9073 235.4883,146.9073 Q236.1768,146.9073 236.7773,147.0685 Q237.3926,147.215 237.9053,147.5519 Z " fill="#000000"/><text fill="#000000" font-family="sans-serif" font-size="13.125" lengthAdjust="spacing" textLength="102.8723" x="248.4375" y="156.8536">ExecutionContext</text><line style="stroke:#181818;stroke-width:0.4688;" x1="222.1875" x2="353.1848" y1="166.4191" y2="166.4191"/><text fill="#000000" font-family="sans-serif" font-size="13.125" lengthAdjust="spacing" textLength="40.4965" x="226.875" y="184.3323">+mode</text><text fill="#000000" font-family="sans-serif" font-size="13.125" lengthAdjust="spacing" textLength="58.0115" x="226.875" y="201.7896">+base_url</text><text fill="#000000" font-family="sans-serif" font-size="13.125" lengthAdjust="spacing" textLength="33.2098" x="226.875" y="219.2468">+auth</text><text fill="#000000" font-family="sans-serif" font-size="13.125" lengthAdjust="spacing" textLength="43.4061" x="226.875" y="236.7041">+extras</text><line style="stroke:#181818;stroke-width:0.4688;" x1="222.1875" x2="353.1848" y1="243.7482" y2="243.7482"/></g><!--reverse link IExecutor to LocalExecutor--><g class="link" data-entity-1="IExecutor" data-entity-2="LocalExecutor" data-source-line="54" data-uid="lnk9" id="link_IExecutor_LocalExecutor"><path d="M468.2851,765.3838 C456.7163,789.0838 453.6,798.3316 448.1063,815.1503" fill="none" id="IExecutor-backto-LocalExecutor" style="stroke:#181818;stroke-width:0.9375;stroke-dasharray:6.5625,6.5625;"/><polygon fill="none" points="475.6875,750.2191,463.2302,762.9164,473.34,767.8513,475.6875,750.2191" style="stroke:#181818;stroke-width:0.9375;"/></g><!--reverse link IExecutor to LocalExecutor--><g class="link" data-entity-1="IExecutor" data-entity-2="LocalExecutor" data-source-line="125" data-uid="lnk30" id="link_IExecutor_LocalExecutor"><path codeLine="125" d="M493.0932,765.5057 C482.0119,789.2057 476.2687,798.3316 465.525,815.1503" fill="none" id="IExecutor-backto-LocalExecutor-1" style="stroke:#181818;stroke-width:0.9375;stroke-dasharray:6.5625,6.5625;"/><polygon fill="none" points="500.2406,750.2191,487.9977,763.1232,498.1887,767.8881,500.2406,750.2191" style="stroke:#181818;stroke-width:0.9375;"/></g><!--reverse link IExecutor to RemoteExecutor--><g class="link" data-entity-1="IExecutor" data-entity-2="RemoteExecutor" data-source-line="55" data-uid="lnk11" id="link_IExecutor_RemoteExecutor"><path d="M553.8649,765.5033 C564.9555,789.2033 570.6281,798.3316 581.2219,815.1503" fill="none" id="IExecutor-backto-RemoteExecutor" style="stroke:#181818;stroke-width:0.9375;stroke-dasharray:6.5625,6.5625;"/><polygon fill="none" points="546.7125,750.2191,548.7702,767.8875,558.9597,763.1192,546.7125,750.2191" style="stroke:#181818;stroke-width:0.9375;"/></g><!--reverse link IExecutor to RemoteExecutor--><g class="link" data-entity-1="IExecutor" data-entity-2="RemoteExecutor" data-source-line="126" data-uid="lnk31" id="link_IExecutor_RemoteExecutor"><path codeLine="126" d="M578.6684,765.3791 C590.2559,789.0791 593.2969,798.3316 598.6406,815.1503" fill="none" id="IExecutor-backto-RemoteExecutor-1" style="stroke:#181818;stroke-width:0.9375;stroke-dasharray:6.5625,6.5625;"/><polygon fill="none" points="571.2563,750.2191,573.615,767.8498,583.7217,762.9084,571.2563,750.2191" style="stroke:#181818;stroke-width:0.9375;"/></g><!--link WorkflowManager to WorkflowLoader--><g class="link" data-entity-1="WorkflowManager" data-entity-2="WorkflowLoader" data-source-line="117" data-uid="lnk23" id="link_WorkflowManager_WorkflowLoader"><path codeLine="117" d="M479.7375,289.7097 C444.7781,309.8753 407.2594,330.1159 371.25,346.8878 C303.5156,378.4347 279.6188,369.6597 212.8125,403.1378 C207.5719,405.7628 207.1706,405.8427 201.9019,408.8239" fill="none" id="WorkflowManager-to-WorkflowLoader" style="stroke:#181818;stroke-width:0.9375;"/><polygon fill="#181818" points="197.0063,411.5941,206.1964,410.7026,201.0859,409.2856,202.5029,404.1751,197.0063,411.5941" style="stroke:#181818;stroke-width:0.9375;"/></g><!--link WorkflowManager to ComfyCompiler--><g class="link" data-entity-1="WorkflowManager" data-entity-2="ComfyCompiler" data-source-line="118" data-uid="lnk24" id="link_WorkflowManager_ComfyCompiler"><path codeLine="118" d="M479.9438,326.6097 C443.9063,358.1284 411.5584,386.412 381.8772,412.3808" fill="none" id="WorkflowManager-to-ComfyCompiler" style="stroke:#181818;stroke-width:0.9375;"/><polygon fill="#181818" points="377.6438,416.0847,386.4631,413.3511,381.1716,412.9981,381.5246,407.7066,377.6438,416.0847" style="stroke:#181818;stroke-width:0.9375;"/></g><!--link WorkflowManager to ExecutorFactory--><g class="link" data-entity-1="WorkflowManager" data-entity-2="ExecutorFactory" data-source-line="119" data-uid="lnk25" id="link_WorkflowManager_ExecutorFactory"><path codeLine="119" d="M571.8281,346.9441 C557.8031,383.1128 546.2813,412.8093 537.047,436.6124" fill="none" id="WorkflowManager-to-ExecutorFactory" style="stroke:#181818;stroke-width:0.9375;"/><polygon fill="#181818" points="535.0125,441.8566,541.5603,435.3466,536.7079,437.4864,534.5681,432.634,535.0125,441.8566" style="stroke:#181818;stroke-width:0.9375;"/></g><!--link WorkflowManager to ValidationService--><g class="link" data-entity-1="WorkflowManager" data-entity-2="ValidationService" data-source-line="120" data-uid="lnk26" id="link_WorkflowManager_ValidationService"><path codeLine="120" d="M690.5625,346.9441 C704.7094,383.1128 716.3275,412.8155 725.6463,436.6187" fill="none" id="WorkflowManager-to-ValidationService" style="stroke:#181818;stroke-width:0.9375;"/><polygon fill="#181818" points="727.6969,441.8566,728.1129,432.6326,725.988,437.4916,721.129,435.3668,727.6969,441.8566" style="stroke:#181818;stroke-width:0.9375;"/></g><!--link WorkflowManager to ProgressService--><g class="link" data-entity-1="WorkflowManager" data-entity-2="ProgressService" data-source-line="121" data-uid="lnk27" id="link_WorkflowManager_ProgressService"><path codeLine="121" d="M782.0063,337.1941 C823.9313,376.7847 861.3448,412.1101 888.8135,438.0507" fill="none" id="WorkflowManager-to-ProgressService" style="stroke:#181818;stroke-width:0.9375;"/><polygon fill="#181818" points="892.9031,441.9128,889.3434,433.3933,889.4951,438.6944,884.194,438.8461,892.9031,441.9128" style="stroke:#181818;stroke-width:0.9375;"/></g><!--link WorkflowManager to OutputHandler--><g class="link" data-entity-1="WorkflowManager" data-entity-2="OutputHandler" data-source-line="122" data-uid="lnk28" id="link_WorkflowManager_OutputHandler"><path codeLine="122" d="M781.9781,277.7659 C850.2938,315.6597 931.9125,361.3066 1005,403.1378 C1026.9844,415.7191 1046.2703,426.9807 1066.9703,439.1869" fill="none" id="WorkflowManager-to-OutputHandler" style="stroke:#181818;stroke-width:0.9375;"/><polygon fill="#181818" points="1071.8156,442.0441,1066.4524,434.5281,1067.7778,439.6631,1062.6429,440.9885,1071.8156,442.0441" style="stroke:#181818;stroke-width:0.9375;"/></g><!--link ExecutorFactory to IExecutor--><g class="link" data-entity-1="ExecutorFactory" data-entity-2="IExecutor" data-source-line="124" data-uid="lnk29" id="link_ExecutorFactory_IExecutor"><path codeLine="124" d="M523.125,505.1472 C523.125,530.3097 523.125,561.3316 523.125,594.0691" fill="none" id="ExecutorFactory-to-IExecutor" style="stroke:#181818;stroke-width:0.9375;"/><polygon fill="#181818" points="523.125,599.6941,526.875,591.2566,523.125,595.0066,519.375,591.2566,523.125,599.6941" style="stroke:#181818;stroke-width:0.9375;"/></g><!--link LocalExecutor to ComfyServerManager--><g class="link" data-entity-1="LocalExecutor" data-entity-2="ComfyServerManager" data-source-line="128" data-uid="lnk32" id="link_LocalExecutor_ComfyServerManager"><path codeLine="128" d="M430.2,860.3847 C410.0813,887.6941 378.543,930.5 353.7367,964.1656" fill="none" id="LocalExecutor-to-ComfyServerManager" style="stroke:#181818;stroke-width:0.9375;"/><polygon fill="#181818" points="350.4,968.6941,358.4241,964.1259,353.1806,964.9204,352.3862,959.6769,350.4,968.6941" style="stroke:#181818;stroke-width:0.9375;"/></g><!--link LocalExecutor to ComfyConnector--><g class="link" data-entity-1="LocalExecutor" data-entity-2="ComfyConnector" data-source-line="129" data-uid="lnk33" id="link_LocalExecutor_ComfyConnector"><path codeLine="129" d="M466.0313,860.3847 C481.2,877.0722 499.3731,897.0782 521.1419,921.0313" fill="none" id="LocalExecutor-to-ComfyConnector" style="stroke:#181818;stroke-width:0.9375;"/><polygon fill="#181818" points="524.925,925.1941,522.0255,916.4278,521.7724,921.7251,516.4751,921.472,524.925,925.1941" style="stroke:#181818;stroke-width:0.9375;"/></g><!--link RemoteExecutor to ComfyConnector--><g class="link" data-entity-1="RemoteExecutor" data-entity-2="ComfyConnector" data-source-line="130" data-uid="lnk34" id="link_RemoteExecutor_ComfyConnector"><path codeLine="130" d="M600,860.3847 C600,877.0722 600,895.6159 600,919.5691" fill="none" id="RemoteExecutor-to-ComfyConnector" style="stroke:#181818;stroke-width:0.9375;"/><polygon fill="#181818" points="600,925.1941,603.75,916.7566,600,920.5066,596.25,916.7566,600,925.1941" style="stroke:#181818;stroke-width:0.9375;"/></g><!--link ComfyConnector to ComfyRestClient--><g class="link" data-entity-1="ComfyConnector" data-entity-2="ComfyRestClient" data-source-line="132" data-uid="lnk35" id="link_ComfyConnector_ComfyRestClient"><path codeLine="132" d="M589.6219,1092.3409 C587.2219,1111.4472 585.4375,1125.5722 583.3,1142.6159" fill="none" id="ComfyConnector-to-ComfyRestClient" style="stroke:#181818;stroke-width:0.9375;"/><polygon fill="#181818" points="582.6,1148.1972,587.3708,1140.2919,583.1833,1143.5461,579.9291,1139.3586,582.6,1148.1972" style="stroke:#181818;stroke-width:0.9375;"/></g><!--link ComfyConnector to ComfyWsClient--><g class="link" data-entity-1="ComfyConnector" data-entity-2="ComfyWsClient" data-source-line="133" data-uid="lnk36" id="link_ComfyConnector_ComfyWsClient"><path codeLine="133" d="M678.075,1092.3409 C696.1219,1111.4472 710.8772,1127.0651 726.9834,1144.1089" fill="none" id="ComfyConnector-to-ComfyWsClient" style="stroke:#181818;stroke-width:0.9375;"/><polygon fill="#181818" points="730.8469,1148.1972,727.7773,1139.4891,727.6273,1144.7903,722.3262,1144.6403,730.8469,1148.1972" style="stroke:#181818;stroke-width:0.9375;"/></g><!--link WorkflowLoader to NodeCoreAPI--><g class="link" data-entity-1="WorkflowLoader" data-entity-2="NodeCoreAPI" data-source-line="135" data-uid="lnk37" id="link_WorkflowLoader_NodeCoreAPI"><path codeLine="135" d="M108.75,543.9503 C108.75,574.4472 108.75,603.4909 108.75,629.3753" fill="none" id="WorkflowLoader-to-NodeCoreAPI" style="stroke:#181818;stroke-width:0.9375;"/><polygon fill="#181818" points="108.75,635.0003,112.5,626.5628,108.75,630.3128,105,626.5628,108.75,635.0003" style="stroke:#181818;stroke-width:0.9375;"/></g><!--link NodeCoreAPI to NodeRegistry--><g class="link" data-entity-1="NodeCoreAPI" data-entity-2="NodeRegistry" data-source-line="136" data-uid="lnk38" id="link_NodeCoreAPI_NodeRegistry"><path codeLine="136" d="M108.75,714.8753 C108.75,742.9347 108.75,774.6691 108.75,800.5909" fill="none" id="NodeCoreAPI-to-NodeRegistry" style="stroke:#181818;stroke-width:0.9375;"/><polygon fill="#181818" points="108.75,806.2159,112.5,797.7784,108.75,801.5284,105,797.7784,108.75,806.2159" style="stroke:#181818;stroke-width:0.9375;"/></g><!--link ComfyServerManager to ConfigManager--><g class="link" data-entity-1="ComfyServerManager" data-entity-2="ConfigManager" data-source-line="137" data-uid="lnk39" id="link_ComfyServerManager_ConfigManager"><path codeLine="137" d="M321.5625,1048.8128 C321.5625,1080.6503 321.5625,1119.7534 321.5625,1151.5816" fill="none" id="ComfyServerManager-to-ConfigManager" style="stroke:#181818;stroke-width:0.9375;"/><polygon fill="#181818" points="321.5625,1157.2066,325.3125,1148.7691,321.5625,1152.5191,317.8125,1148.7691,321.5625,1157.2066" style="stroke:#181818;stroke-width:0.9375;"/></g><!--SRC=[VLPBZzis4BxxLn0voOZjfBSWA184Heeki6c3NQ0v4ZGrajcLI8Aarkks-UyTlcHHjjO7cTHymtb_b7qIKZF3Uj8hgVZHg1w8CmEix2ZX7RFsYtD670O7Trp9H_4FaFSJY3soMfs4R4d3EZjLhhKWltnulrffnfzO2-GDLtrp7WGrq2i7RyY_An9Da1_AF3MTEdrZ4f4cI0XvsobMLvgvuphkBNi6gj5JxOhNu6YmIGzdweJhe0hF3GblD-IPTGEioKSYfBkbSjPG1KV2qgivVln8lZ6zh2Jg2buS6CawN2_gjAY3SMlHGPrTv-xbimSXzd8ml00Vd50IuTBXqHwM0emok5BSRkDVQvW-nYNrEGEJDibotgBzre2rQOjf4JLpAelLuFJWigfxmTNFrLMDxeE1QObeWt7HlwsIeIeRmhHOJntSxGXpZl4ZMA9HLweQy6MMqLDF3JjHgu5lmWx3nwJE8DCA-NseCOcWYPzxtsNx57XsCoMY2fdQ49_QwpoYdS6YYp65Musf0lCCKpz4RTy5k_RTIQ2SnD_SXw-XOChynZW-pwCN1XYMiSVmHn_kCZQVWAq3fc4SBgAiZnvX_nLHf0OQ3hrmi-WUSMvbcpHLrrL79kiECB55yt4K0NTBKYOvJ5NBZhoLpqaUxXLdtHY5w7K7FKXdYwWZz26GmklOiiQFlZXcHXdMCUCgfPr5hvHiH4lxY0YJytk88qELhjOtcqTAu9EyAmsoMkTCMaTFQHQgED5egXFeQqhUDF5O6SkHFo510rUeGsWiinvzTeEz08e2D82yaaPp2PEAT16crvsoS3F21x1k7rpE8I9FLI1hhR3zYhDzlADaG_oK5t9FS8Up0riDflEIiBbXyuSjBKwJUZDB_F1Q77_W4EsLWI_VxyhnefvTgjrkbxH3Y-ATqzmwuG5QOTrbGatOWwaYpV3EpfJ-Yfo9FEtRJ-2K9ir4fa23lJWOFXttU5vvnFV4mhC31ktLAtZ67CsC_Xcg7tjtqkaO_MKmaNMD4yWRpjuSnNqOXjcqD0AlBxpIAw-IUnzXKNeo0kD1BZQCUcAtzCpwhk9DMtJv5UzXSlRn3ijsFEF5rO5PeDWfSSS6Tyo4WbR6jfb_3sotdsRtpmAe8Fy5p8oS5r1NXLx0pQgvW2egw2EStn0UD2N52_V_-X_UEmMHNejBylJdbymxfgRWp6NOo808cH7p3Go2PhmvWYv4ymeeCyEqykahmsCcauw0wTndQPxYRAEy6QATIVUlVluF]--></g></svg>