<svg xmlns="http://www.w3.org/2000/svg" xmlns:xlink="http://www.w3.org/1999/xlink" contentStyleType="text/css" data-diagram-type="DESCRIPTION" height="634.6875px" preserveAspectRatio="none" style="width:1405px;height:634px;background:#FFFFFF;" version="1.1" viewBox="0 0 1405 634" width="1405.3125px" zoomAndPan="magnify"><defs/><g><!--cluster Developer App/CLI--><g class="cluster" data-entity="Developer App.CLI" data-source-line="5" data-uid="ent0002" id="cluster_Developer App.CLI"><path d="M7.9688,5.6378 L126.3199,5.6378 A3.5156,3.5156 0 0 1 128.6636,7.9816 L135.2261,28.7201 L827.3438,28.7201 A2.3438,2.3438 0 0 1 829.6875,31.0638 L829.6875,201.1066 A2.3438,2.3438 0 0 1 827.3438,203.4503 L7.9688,203.4503 A2.3438,2.3438 0 0 1 5.625,201.1066 L5.625,7.9816 A2.3438,2.3438 0 0 1 7.9688,5.6378" fill="none" style="stroke:#000000;stroke-width:1.4063;"/><line style="stroke:#000000;stroke-width:1.4063;" x1="5.625" x2="135.2261" y1="28.7201" y2="28.7201"/><text fill="#000000" font-family="sans-serif" font-size="13.125" font-weight="bold" lengthAdjust="spacing" textLength="117.4136" x="9.375" y="21.676">Developer App/CLI</text></g><!--cluster Transport--><g class="cluster" data-entity="Transport" data-source-line="16" data-uid="ent0011" id="cluster_Transport"><path d="M854.5313,107.8253 L916.723,107.8253 A3.5156,3.5156 0 0 1 919.0668,110.1691 L925.6293,130.9076 L1177.0313,130.9076 A2.3438,2.3438 0 0 1 1179.375,133.2513 L1179.375,303.2941 A2.3438,2.3438 0 0 1 1177.0313,305.6378 L854.5313,305.6378 A2.3438,2.3438 0 0 1 852.1875,303.2941 L852.1875,110.1691 A2.3438,2.3438 0 0 1 854.5313,107.8253" fill="none" style="stroke:#000000;stroke-width:1.4063;"/><line style="stroke:#000000;stroke-width:1.4063;" x1="852.1875" x2="925.6293" y1="130.9076" y2="130.9076"/><text fill="#000000" font-family="sans-serif" font-size="13.125" font-weight="bold" lengthAdjust="spacing" textLength="61.2543" x="855.9375" y="123.8635">Transport</text></g><!--cluster Process mgmt--><g class="cluster" data-entity="Process mgmt" data-source-line="22" data-uid="ent0015" id="cluster_Process mgmt"><path d="M1204.2188,107.8253 L1295.6085,107.8253 A3.5156,3.5156 0 0 1 1297.9523,110.1691 L1304.5148,130.9076 L1396.4063,130.9076 A2.3438,2.3438 0 0 1 1398.75,133.2513 L1398.75,303.2941 A2.3438,2.3438 0 0 1 1396.4063,305.6378 L1204.2188,305.6378 A2.3438,2.3438 0 0 1 1201.875,303.2941 L1201.875,110.1691 A2.3438,2.3438 0 0 1 1204.2188,107.8253" fill="none" style="stroke:#000000;stroke-width:1.4063;"/><line style="stroke:#000000;stroke-width:1.4063;" x1="1201.875" x2="1304.5148" y1="130.9076" y2="130.9076"/><text fill="#000000" font-family="sans-serif" font-size="13.125" font-weight="bold" lengthAdjust="spacing" textLength="90.4523" x="1205.625" y="123.8635">Process mgmt</text></g><!--cluster ComfyUI Server--><g class="cluster" data-entity="ComfyUI Server" data-source-line="27" data-uid="ent0018" id="cluster_ComfyUI Server"><path d="M877.0313,328.1378 L976.4447,328.1378 A3.5156,3.5156 0 0 1 978.7885,330.4816 L985.351,351.2201 L1138.5938,351.2201 A2.3438,2.3438 0 0 1 1140.9375,353.5638 L1140.9375,625.7941 A2.3438,2.3438 0 0 1 1138.5938,628.1378 L877.0313,628.1378 A2.3438,2.3438 0 0 1 874.6875,625.7941 L874.6875,330.4816 A2.3438,2.3438 0 0 1 877.0313,328.1378" fill="none" style="stroke:#000000;stroke-width:1.4063;"/><line style="stroke:#000000;stroke-width:1.4063;" x1="874.6875" x2="985.351" y1="351.2201" y2="351.2201"/><text fill="#000000" font-family="sans-serif" font-size="13.125" font-weight="bold" lengthAdjust="spacing" textLength="98.476" x="878.4375" y="344.176">ComfyUI Server</text></g><!--entity WorkflowManager--><g class="entity" data-entity="WorkflowManager" data-source-line="6" data-uid="ent0003" id="entity_WorkflowManager"><rect fill="#F1F1F1" height="45.5823" rx="2.3438" ry="2.3438" style="stroke:#181818;stroke-width:0.4688;" width="143.2626" x="348.2813" y="40.3253"/><rect fill="#F1F1F1" height="9.375" style="stroke:#181818;stroke-width:0.4688;" width="14.0625" x="472.7939" y="45.0128"/><rect fill="#F1F1F1" height="1.875" style="stroke:#181818;stroke-width:0.4688;" width="3.75" x="470.9189" y="46.8878"/><rect fill="#F1F1F1" height="1.875" style="stroke:#181818;stroke-width:0.4688;" width="3.75" x="470.9189" y="50.6378"/><text fill="#000000" font-family="sans-serif" font-size="13.125" lengthAdjust="spacing" textLength="105.7626" x="362.3438" y="73.2385">WorkflowManager</text></g><!--entity ExecutorFactory--><g class="entity" data-entity="ExecutorFactory" data-source-line="7" data-uid="ent0004" id="entity_ExecutorFactory"><rect fill="#F1F1F1" height="45.5823" rx="2.3438" ry="2.3438" style="stroke:#181818;stroke-width:0.4688;" width="133.0536" x="190.3125" y="142.5128"/><rect fill="#F1F1F1" height="9.375" style="stroke:#181818;stroke-width:0.4688;" width="14.0625" x="304.6161" y="147.2003"/><rect fill="#F1F1F1" height="1.875" style="stroke:#181818;stroke-width:0.4688;" width="3.75" x="302.7411" y="149.0753"/><rect fill="#F1F1F1" height="1.875" style="stroke:#181818;stroke-width:0.4688;" width="3.75" x="302.7411" y="152.8253"/><text fill="#000000" font-family="sans-serif" font-size="13.125" lengthAdjust="spacing" textLength="95.5536" x="204.375" y="175.426">ExecutorFactory</text></g><!--entity LocalExecutor--><g class="entity" data-entity="LocalExecutor" data-source-line="8" data-uid="ent0005" id="entity_LocalExecutor"><rect fill="#F1F1F1" height="45.5823" rx="2.3438" ry="2.3438" style="stroke:#181818;stroke-width:0.4688;" width="120.672" x="693.2813" y="40.3253"/><rect fill="#F1F1F1" height="9.375" style="stroke:#181818;stroke-width:0.4688;" width="14.0625" x="795.2032" y="45.0128"/><rect fill="#F1F1F1" height="1.875" style="stroke:#181818;stroke-width:0.4688;" width="3.75" x="793.3282" y="46.8878"/><rect fill="#F1F1F1" height="1.875" style="stroke:#181818;stroke-width:0.4688;" width="3.75" x="793.3282" y="50.6378"/><text fill="#000000" font-family="sans-serif" font-size="13.125" lengthAdjust="spacing" textLength="83.172" x="707.3438" y="73.2385">LocalExecutor</text></g><!--entity RemoteExecutor--><g class="entity" data-entity="RemoteExecutor" data-source-line="9" data-uid="ent0006" id="entity_RemoteExecutor"><rect fill="#F1F1F1" height="45.5823" rx="2.3438" ry="2.3438" style="stroke:#181818;stroke-width:0.4688;" width="135.2518" x="525" y="40.3253"/><rect fill="#F1F1F1" height="9.375" style="stroke:#181818;stroke-width:0.4688;" width="14.0625" x="641.5018" y="45.0128"/><rect fill="#F1F1F1" height="1.875" style="stroke:#181818;stroke-width:0.4688;" width="3.75" x="639.6268" y="46.8878"/><rect fill="#F1F1F1" height="1.875" style="stroke:#181818;stroke-width:0.4688;" width="3.75" x="639.6268" y="50.6378"/><text fill="#000000" font-family="sans-serif" font-size="13.125" lengthAdjust="spacing" textLength="97.7518" x="539.0625" y="73.2385">RemoteExecutor</text></g><!--entity ComfyCompiler--><g class="entity" data-entity="ComfyCompiler" data-source-line="10" data-uid="ent0007" id="entity_ComfyCompiler"><rect fill="#F1F1F1" height="45.5823" rx="2.3438" ry="2.3438" style="stroke:#181818;stroke-width:0.4688;" width="127.933" x="356.25" y="142.5128"/><rect fill="#F1F1F1" height="9.375" style="stroke:#181818;stroke-width:0.4688;" width="14.0625" x="465.433" y="147.2003"/><rect fill="#F1F1F1" height="1.875" style="stroke:#181818;stroke-width:0.4688;" width="3.75" x="463.558" y="149.0753"/><rect fill="#F1F1F1" height="1.875" style="stroke:#181818;stroke-width:0.4688;" width="3.75" x="463.558" y="152.8253"/><text fill="#000000" font-family="sans-serif" font-size="13.125" lengthAdjust="spacing" textLength="90.433" x="370.3125" y="175.426">ComfyCompiler</text></g><!--entity WorkflowLoader--><g class="entity" data-entity="WorkflowLoader" data-source-line="11" data-uid="ent0008" id="entity_WorkflowLoader"><rect fill="#F1F1F1" height="45.5823" rx="2.3438" ry="2.3438" style="stroke:#181818;stroke-width:0.4688;" width="132.3294" x="517.0313" y="142.5128"/><rect fill="#F1F1F1" height="9.375" style="stroke:#181818;stroke-width:0.4688;" width="14.0625" x="630.6107" y="147.2003"/><rect fill="#F1F1F1" height="1.875" style="stroke:#181818;stroke-width:0.4688;" width="3.75" x="628.7357" y="149.0753"/><rect fill="#F1F1F1" height="1.875" style="stroke:#181818;stroke-width:0.4688;" width="3.75" x="628.7357" y="152.8253"/><text fill="#000000" font-family="sans-serif" font-size="13.125" lengthAdjust="spacing" textLength="94.8294" x="531.0938" y="175.426">WorkflowLoader</text></g><!--entity OutputHandler--><g class="entity" data-entity="OutputHandler" data-source-line="12" data-uid="ent0009" id="entity_OutputHandler"><rect fill="#F1F1F1" height="45.5823" rx="2.3438" ry="2.3438" style="stroke:#181818;stroke-width:0.4688;" width="122.8638" x="192.6563" y="40.3253"/><rect fill="#F1F1F1" height="9.375" style="stroke:#181818;stroke-width:0.4688;" width="14.0625" x="296.77" y="45.0128"/><rect fill="#F1F1F1" height="1.875" style="stroke:#181818;stroke-width:0.4688;" width="3.75" x="294.895" y="46.8878"/><rect fill="#F1F1F1" height="1.875" style="stroke:#181818;stroke-width:0.4688;" width="3.75" x="294.895" y="50.6378"/><text fill="#000000" font-family="sans-serif" font-size="13.125" lengthAdjust="spacing" textLength="85.3638" x="206.7188" y="73.2385">OutputHandler</text></g><!--entity ValidationService--><g class="entity" data-entity="ValidationService" data-source-line="13" data-uid="ent0010" id="entity_ValidationService"><rect fill="#F1F1F1" height="45.5823" rx="2.3438" ry="2.3438" style="stroke:#181818;stroke-width:0.4688;" width="138.9111" x="20.625" y="40.3253"/><rect fill="#F1F1F1" height="9.375" style="stroke:#181818;stroke-width:0.4688;" width="14.0625" x="140.7861" y="45.0128"/><rect fill="#F1F1F1" height="1.875" style="stroke:#181818;stroke-width:0.4688;" width="3.75" x="138.9111" y="46.8878"/><rect fill="#F1F1F1" height="1.875" style="stroke:#181818;stroke-width:0.4688;" width="3.75" x="138.9111" y="50.6378"/><text fill="#000000" font-family="sans-serif" font-size="13.125" lengthAdjust="spacing" textLength="101.4111" x="34.6875" y="73.2385">ValidationService</text></g><!--entity ComfyConnector--><g class="entity" data-entity="ComfyConnector" data-source-line="17" data-uid="ent0012" id="entity_ComfyConnector"><rect fill="#F1F1F1" height="45.5823" rx="2.3438" ry="2.3438" style="stroke:#181818;stroke-width:0.4688;" width="135.976" x="867.6563" y="142.5128"/><rect fill="#F1F1F1" height="9.375" style="stroke:#181818;stroke-width:0.4688;" width="14.0625" x="984.8822" y="147.2003"/><rect fill="#F1F1F1" height="1.875" style="stroke:#181818;stroke-width:0.4688;" width="3.75" x="983.0072" y="149.0753"/><rect fill="#F1F1F1" height="1.875" style="stroke:#181818;stroke-width:0.4688;" width="3.75" x="983.0072" y="152.8253"/><text fill="#000000" font-family="sans-serif" font-size="13.125" lengthAdjust="spacing" textLength="98.476" x="881.7188" y="175.426">ComfyConnector</text></g><!--entity ComfyRestClient--><g class="entity" data-entity="ComfyRestClient" data-source-line="18" data-uid="ent0013" id="entity_ComfyRestClient"><rect fill="#F1F1F1" height="45.5823" rx="2.3438" ry="2.3438" style="stroke:#181818;stroke-width:0.4688;" width="135.9631" x="867.6563" y="244.7003"/><rect fill="#F1F1F1" height="9.375" style="stroke:#181818;stroke-width:0.4688;" width="14.0625" x="984.8694" y="249.3878"/><rect fill="#F1F1F1" height="1.875" style="stroke:#181818;stroke-width:0.4688;" width="3.75" x="982.9944" y="251.2628"/><rect fill="#F1F1F1" height="1.875" style="stroke:#181818;stroke-width:0.4688;" width="3.75" x="982.9944" y="255.0128"/><text fill="#000000" font-family="sans-serif" font-size="13.125" lengthAdjust="spacing" textLength="98.4631" x="881.7188" y="277.6135">ComfyRestClient</text></g><!--entity ComfyWsClient--><g class="entity" data-entity="ComfyWsClient" data-source-line="19" data-uid="ent0014" id="entity_ComfyWsClient"><rect fill="#F1F1F1" height="45.5823" rx="2.3438" ry="2.3438" style="stroke:#181818;stroke-width:0.4688;" width="127.9266" x="1036.875" y="244.7003"/><rect fill="#F1F1F1" height="9.375" style="stroke:#181818;stroke-width:0.4688;" width="14.0625" x="1146.0516" y="249.3878"/><rect fill="#F1F1F1" height="1.875" style="stroke:#181818;stroke-width:0.4688;" width="3.75" x="1144.1766" y="251.2628"/><rect fill="#F1F1F1" height="1.875" style="stroke:#181818;stroke-width:0.4688;" width="3.75" x="1144.1766" y="255.0128"/><text fill="#000000" font-family="sans-serif" font-size="13.125" lengthAdjust="spacing" textLength="90.4266" x="1050.9375" y="277.6135">ComfyWsClient</text></g><!--entity ComfyServerManager--><g class="entity" data-entity="ComfyServerManager" data-source-line="23" data-uid="ent0016" id="entity_ComfyServerManager"><rect fill="#F1F1F1" height="45.5823" rx="2.3438" ry="2.3438" style="stroke:#181818;stroke-width:0.4688;" width="165.8789" x="1217.3438" y="142.5128"/><rect fill="#F1F1F1" height="9.375" style="stroke:#181818;stroke-width:0.4688;" width="14.0625" x="1364.4727" y="147.2003"/><rect fill="#F1F1F1" height="1.875" style="stroke:#181818;stroke-width:0.4688;" width="3.75" x="1362.5977" y="149.0753"/><rect fill="#F1F1F1" height="1.875" style="stroke:#181818;stroke-width:0.4688;" width="3.75" x="1362.5977" y="152.8253"/><text fill="#000000" font-family="sans-serif" font-size="13.125" lengthAdjust="spacing" textLength="128.3789" x="1231.4063" y="175.426">ComfyServerManager</text></g><!--entity ConfigManager--><g class="entity" data-entity="ConfigManager" data-source-line="24" data-uid="ent0017" id="entity_ConfigManager"><rect fill="#F1F1F1" height="45.5823" rx="2.3438" ry="2.3438" style="stroke:#181818;stroke-width:0.4688;" width="127.2409" x="1236.5625" y="244.7003"/><rect fill="#F1F1F1" height="9.375" style="stroke:#181818;stroke-width:0.4688;" width="14.0625" x="1345.0534" y="249.3878"/><rect fill="#F1F1F1" height="1.875" style="stroke:#181818;stroke-width:0.4688;" width="3.75" x="1343.1784" y="251.2628"/><rect fill="#F1F1F1" height="1.875" style="stroke:#181818;stroke-width:0.4688;" width="3.75" x="1343.1784" y="255.0128"/><text fill="#000000" font-family="sans-serif" font-size="13.125" lengthAdjust="spacing" textLength="89.7409" x="1250.625" y="277.6135">ConfigManager</text></g><!--entity main.py--><g class="entity" data-entity="main.py" data-source-line="28" data-uid="ent0019" id="entity_main.py"><rect fill="#F1F1F1" height="45.5823" rx="2.3438" ry="2.3438" style="stroke:#181818;stroke-width:0.4688;" width="83.4567" x="966.0938" y="465.0128"/><rect fill="#F1F1F1" height="9.375" style="stroke:#181818;stroke-width:0.4688;" width="14.0625" x="1030.8005" y="469.7003"/><rect fill="#F1F1F1" height="1.875" style="stroke:#181818;stroke-width:0.4688;" width="3.75" x="1028.9255" y="471.5753"/><rect fill="#F1F1F1" height="1.875" style="stroke:#181818;stroke-width:0.4688;" width="3.75" x="1028.9255" y="475.3253"/><text fill="#000000" font-family="sans-serif" font-size="13.125" lengthAdjust="spacing" textLength="45.9567" x="980.1563" y="497.926">main.py</text></g><!--entity REST /prompt--><g class="entity" data-entity="REST .prompt" data-source-line="29" data-uid="ent0020" id="entity_REST .prompt"><rect fill="#F1F1F1" height="45.5823" rx="2.3438" ry="2.3438" style="stroke:#181818;stroke-width:0.4688;" width="120.6464" x="890.1563" y="362.8253"/><rect fill="#F1F1F1" height="9.375" style="stroke:#181818;stroke-width:0.4688;" width="14.0625" x="992.0526" y="367.5128"/><rect fill="#F1F1F1" height="1.875" style="stroke:#181818;stroke-width:0.4688;" width="3.75" x="990.1776" y="369.3878"/><rect fill="#F1F1F1" height="1.875" style="stroke:#181818;stroke-width:0.4688;" width="3.75" x="990.1776" y="373.1378"/><text fill="#000000" font-family="sans-serif" font-size="13.125" lengthAdjust="spacing" textLength="83.1464" x="904.2188" y="395.7385">REST /prompt</text></g><!--entity WS /ws--><g class="entity" data-entity="WS .ws" data-source-line="30" data-uid="ent0021" id="entity_WS .ws"><rect fill="#F1F1F1" height="45.5823" rx="2.3438" ry="2.3438" style="stroke:#181818;stroke-width:0.4688;" width="81.9763" x="1043.9063" y="362.8253"/><rect fill="#F1F1F1" height="9.375" style="stroke:#181818;stroke-width:0.4688;" width="14.0625" x="1107.1326" y="367.5128"/><rect fill="#F1F1F1" height="1.875" style="stroke:#181818;stroke-width:0.4688;" width="3.75" x="1105.2576" y="369.3878"/><rect fill="#F1F1F1" height="1.875" style="stroke:#181818;stroke-width:0.4688;" width="3.75" x="1105.2576" y="373.1378"/><text fill="#000000" font-family="sans-serif" font-size="13.125" lengthAdjust="spacing" textLength="44.4763" x="1057.9688" y="395.7385">WS /ws</text></g><!--entity Models + IO Dirs--><g class="entity" data-entity="Models . IO Dirs" data-source-line="31" data-uid="ent0022" id="entity_Models . IO Dirs"><rect fill="#F1F1F1" height="45.5823" rx="2.3438" ry="2.3438" style="stroke:#181818;stroke-width:0.4688;" width="135.5978" x="939.8438" y="567.2003"/><rect fill="#F1F1F1" height="9.375" style="stroke:#181818;stroke-width:0.4688;" width="14.0625" x="1056.6916" y="571.8878"/><rect fill="#F1F1F1" height="1.875" style="stroke:#181818;stroke-width:0.4688;" width="3.75" x="1054.8166" y="573.7628"/><rect fill="#F1F1F1" height="1.875" style="stroke:#181818;stroke-width:0.4688;" width="3.75" x="1054.8166" y="577.5128"/><text fill="#000000" font-family="sans-serif" font-size="13.125" lengthAdjust="spacing" textLength="98.0978" x="953.9063" y="600.1135">Models + IO Dirs</text></g><!--link WorkflowManager to WorkflowLoader--><g class="link" data-entity-1="WorkflowManager" data-entity-2="WorkflowLoader" data-source-line="34" data-uid="lnk23" id="link_WorkflowManager_WorkflowLoader"><path d="M473.5969,86.4503 C482.4938,90.7159 491.4844,95.4034 499.6875,100.3253 C520.2188,112.6534 537.2481,125.5986 553.2231,138.7986" fill="none" id="WorkflowManager-to-WorkflowLoader" style="stroke:#181818;stroke-width:0.9375;"/><polygon fill="#181818" points="557.5594,142.3816,553.4437,134.1163,553.9459,139.3957,548.6664,139.8979,557.5594,142.3816" style="stroke:#181818;stroke-width:0.9375;"/></g><!--link WorkflowManager to ComfyCompiler--><g class="link" data-entity-1="WorkflowManager" data-entity-2="ComfyCompiler" data-source-line="35" data-uid="lnk24" id="link_WorkflowManager_ComfyCompiler"><path d="M420,86.4972 C420,103.1191 420,120.1066 420,136.7191" fill="none" id="WorkflowManager-to-ComfyCompiler" style="stroke:#181818;stroke-width:0.9375;"/><polygon fill="#181818" points="420,142.3441,423.75,133.9066,420,137.6566,416.25,133.9066,420,142.3441" style="stroke:#181818;stroke-width:0.9375;"/></g><!--link WorkflowManager to ExecutorFactory--><g class="link" data-entity-1="WorkflowManager" data-entity-2="ExecutorFactory" data-source-line="36" data-uid="lnk25" id="link_WorkflowManager_ExecutorFactory"><path d="M365.7375,86.3566 C356.7469,90.6316 347.6531,95.3472 339.375,100.3253 C318.9938,112.5784 302.1837,125.4942 286.4055,138.713" fill="none" id="WorkflowManager-to-ExecutorFactory" style="stroke:#181818;stroke-width:0.9375;"/><polygon fill="#181818" points="282.0938,142.3253,290.9697,139.7813,285.6869,139.315,286.1532,134.0323,282.0938,142.3253" style="stroke:#181818;stroke-width:0.9375;"/></g><!--link LocalExecutor to ComfyServerManager--><g class="link" data-entity-1="LocalExecutor" data-entity-2="ComfyServerManager" data-source-line="37" data-uid="lnk26" id="link_LocalExecutor_ComfyServerManager"><path d="M814.5375,66.3784 C915.3656,70.4566 1112.6812,80.6847 1179.375,100.3253 C1211.0719,109.6628 1239.2311,124.8211 1262.7061,139.4367" fill="none" id="LocalExecutor-to-ComfyServerManager" style="stroke:#181818;stroke-width:0.9375;"/><polygon fill="#181818" points="1267.4813,142.4097,1262.3006,134.7668,1263.502,139.9322,1258.3366,141.1336,1267.4813,142.4097" style="stroke:#181818;stroke-width:0.9375;"/></g><!--link LocalExecutor to ComfyConnector--><g class="link" data-entity-1="LocalExecutor" data-entity-2="ComfyConnector" data-source-line="38" data-uid="lnk27" id="link_LocalExecutor_ComfyConnector"><path d="M802.3219,86.4222 C811.5,90.8659 820.95,95.6191 829.6875,100.3253 C854.0156,113.4409 875.8457,126.5796 896.302,139.3952" fill="none" id="LocalExecutor-to-ComfyConnector" style="stroke:#181818;stroke-width:0.9375;"/><polygon fill="#181818" points="901.0688,142.3816,895.9095,134.7242,897.0964,139.8929,891.9277,141.0799,901.0688,142.3816" style="stroke:#181818;stroke-width:0.9375;"/></g><!--link RemoteExecutor to ComfyConnector--><g class="link" data-entity-1="RemoteExecutor" data-entity-2="ComfyConnector" data-source-line="39" data-uid="lnk28" id="link_RemoteExecutor_ComfyConnector"><path d="M660.4406,82.9909 C665.9813,84.2097 671.5031,85.3253 676.875,86.2628 C744.0563,98.0472 764.9156,78.9784 829.6875,100.3253 C858.0844,109.6816 882.3039,124.5348 902.6851,139.1504" fill="none" id="RemoteExecutor-to-ComfyConnector" style="stroke:#181818;stroke-width:0.9375;"/><polygon fill="#181818" points="907.2563,142.4284,902.5849,134.464,903.447,139.6968,898.2142,140.5588,907.2563,142.4284" style="stroke:#181818;stroke-width:0.9375;"/></g><!--link ComfyServerManager to ConfigManager--><g class="link" data-entity-1="ComfyServerManager" data-entity-2="ConfigManager" data-source-line="40" data-uid="lnk29" id="link_ComfyServerManager_ConfigManager"><path d="M1300.3125,188.6847 C1300.3125,205.3066 1300.3125,222.2941 1300.3125,238.9066" fill="none" id="ComfyServerManager-to-ConfigManager" style="stroke:#181818;stroke-width:0.9375;"/><polygon fill="#181818" points="1300.3125,244.5316,1304.0625,236.0941,1300.3125,239.8441,1296.5625,236.0941,1300.3125,244.5316" style="stroke:#181818;stroke-width:0.9375;"/></g><!--link ComfyConnector to ComfyRestClient--><g class="link" data-entity-1="ComfyConnector" data-entity-2="ComfyRestClient" data-source-line="41" data-uid="lnk30" id="link_ComfyConnector_ComfyRestClient"><path d="M935.625,188.6847 C935.625,205.3066 935.625,222.2941 935.625,238.9066" fill="none" id="ComfyConnector-to-ComfyRestClient" style="stroke:#181818;stroke-width:0.9375;"/><polygon fill="#181818" points="935.625,244.5316,939.375,236.0941,935.625,239.8441,931.875,236.0941,935.625,244.5316" style="stroke:#181818;stroke-width:0.9375;"/></g><!--link ComfyConnector to ComfyWsClient--><g class="link" data-entity-1="ComfyConnector" data-entity-2="ComfyWsClient" data-source-line="42" data-uid="lnk31" id="link_ComfyConnector_ComfyWsClient"><path d="M972.2438,188.6847 C999.5906,205.3066 1031.9845,224.9965 1059.3032,241.609" fill="none" id="ComfyConnector-to-ComfyWsClient" style="stroke:#181818;stroke-width:0.9375;"/><polygon fill="#181818" points="1064.1094,244.5316,1058.8486,236.9436,1060.1043,242.0961,1054.9518,243.3517,1064.1094,244.5316" style="stroke:#181818;stroke-width:0.9375;"/></g><!--link ComfyRestClient to REST /prompt--><g class="link" data-entity-1="ComfyRestClient" data-entity-2="REST .prompt" data-source-line="43" data-uid="lnk32" id="link_ComfyRestClient_REST .prompt"><path d="M938.4844,290.7503 C941.1469,311.4316 944.3933,336.5652 947.0558,357.2184" fill="none" id="ComfyRestClient-to-REST /prompt" style="stroke:#181818;stroke-width:0.9375;"/><polygon fill="#181818" points="947.775,362.7972,950.4154,353.9495,947.1757,358.1482,942.977,354.9084,947.775,362.7972" style="stroke:#181818;stroke-width:0.9375;"/></g><!--link ComfyWsClient to WS /ws--><g class="link" data-entity-1="ComfyWsClient" data-entity-2="WS .ws" data-source-line="44" data-uid="lnk33" id="link_ComfyWsClient_WS .ws"><path d="M1097.5875,290.7503 C1094.7563,311.4316 1091.3108,336.5712 1088.4796,357.2243" fill="none" id="ComfyWsClient-to-WS /ws" style="stroke:#181818;stroke-width:0.9375;"/><polygon fill="#181818" points="1087.7156,362.7972,1092.5768,354.9472,1088.3523,358.1531,1085.1463,353.9286,1087.7156,362.7972" style="stroke:#181818;stroke-width:0.9375;"/></g><!--link REST /prompt to main.py--><g class="link" data-entity-1="REST .prompt" data-entity-2="main.py" data-source-line="45" data-uid="lnk34" id="link_REST .prompt_main.py"><path d="M963.3187,408.9972 C972.7969,425.6191 982.9021,443.3446 992.3708,459.9571" fill="none" id="REST /prompt-to-main.py" style="stroke:#181818;stroke-width:0.9375;"/><polygon fill="#181818" points="995.1563,464.8441,994.236,455.6567,992.8351,460.7716,987.7202,459.3706,995.1563,464.8441" style="stroke:#181818;stroke-width:0.9375;"/></g><!--link WS /ws to main.py--><g class="link" data-entity-1="WS .ws" data-entity-2="main.py" data-source-line="46" data-uid="lnk35" id="link_WS .ws_main.py"><path d="M1067.625,408.9972 C1054.8844,425.6191 1040.97,443.7657 1028.2481,460.3782" fill="none" id="WS /ws-to-main.py" style="stroke:#181818;stroke-width:0.9375;"/><polygon fill="#181818" points="1024.8281,464.8441,1032.9354,460.4252,1027.6781,461.1225,1026.9808,455.8652,1024.8281,464.8441" style="stroke:#181818;stroke-width:0.9375;"/></g><!--link main.py to Models + IO Dirs--><g class="link" data-entity-1="main.py" data-entity-2="Models . IO Dirs" data-source-line="47" data-uid="lnk36" id="link_main.py_Models . IO Dirs"><path d="M1007.8125,511.1847 C1007.8125,527.8066 1007.8125,544.7941 1007.8125,561.4066" fill="none" id="main.py-to-Models + IO Dirs" style="stroke:#181818;stroke-width:0.9375;"/><polygon fill="#181818" points="1007.8125,567.0316,1011.5625,558.5941,1007.8125,562.3441,1004.0625,558.5941,1007.8125,567.0316" style="stroke:#181818;stroke-width:0.9375;"/></g><!--SRC=[VL9DJm8n4BtlhvXuDOZUF9aOm4W2mG3AmN1ekhDBGzjfsYv8ZF_TPJ-Wk-jwQIPlthoPl5Ut5zemonGeqiHtbXI2jnb6xj9nEnRJKUWK4YPTs8cDW8V7-oWoZEzPYd0pnWDACcZXsPZXQ3QzWUy8u7D3Tfz8EiwPpdbsUyOcNyWpJ_Q5yVmz5TYCE9Dreq2MgCXZ0ngHIaxvOuIif6hv6R6uWXQPDvb_PJgkIHzCYfXvGNg5zY0uRgEVuFIrPTePihuwkTgYDVB6uYKwFv82jRzY6rSZeUAR9OxEWKfLG_Iy7creHRuc4Ua52KMAYVSfb4ELZ692tvdIikLajOQXoPCpvKMR5GoFhYZd5ADqS0lJ1Oo5TOLq9mmO39ww7lRGMkRti3hPjf8Dj5fkz1E3BDg_eeVrXtxDRFZTdWpamhJ_eLq_G6UiP3LJQWrL0LIvDRbbxn9upMh3TLNYdTn_0G00]--></g></svg>