<svg xmlns="http://www.w3.org/2000/svg" xmlns:xlink="http://www.w3.org/1999/xlink" contentStyleType="text/css" data-diagram-type="SEQUENCE" height="1468.125px" preserveAspectRatio="none" style="width:1543px;height:1468px;background:#FFFFFF;" version="1.1" viewBox="0 0 1543 1468" width="1543.125px" zoomAndPan="magnify"><defs/><g><g><title>RE</title><rect fill="#FFFFFF" height="707.7979" style="stroke:#181818;stroke-width:1.875;" width="18.75" x="977.8583" y="453.8928"/></g><rect fill="none" height="153.512" style="stroke:#000000;stroke-width:2.8125;" width="514.346" x="937.1255" y="834.0417"/><g><title>Dev</title><rect fill="#000000" fill-opacity="0.00000" height="1155.9924" width="15" x="30.8405" y="156.7896"/><line style="stroke:#181818;stroke-width:0.9375;stroke-dasharray:9.375,9.375;" x1="37.5" x2="37.5" y1="156.7896" y2="1312.782"/></g><g><title>WM</title><rect fill="#000000" fill-opacity="0.00000" height="1155.9924" width="15" x="115.0021" y="156.7896"/><line style="stroke:#181818;stroke-width:0.9375;stroke-dasharray:9.375,9.375;" x1="121.6809" x2="121.6809" y1="156.7896" y2="1312.782"/></g><g><title>EF</title><rect fill="#000000" fill-opacity="0.00000" height="1155.9924" width="15" x="200.0949" y="156.7896"/><line style="stroke:#181818;stroke-width:0.9375;stroke-dasharray:9.375,9.375;" x1="205.8234" x2="205.8234" y1="156.7896" y2="1312.782"/></g><g><title>RE</title><rect fill="#000000" fill-opacity="0.00000" height="1155.9924" width="15" x="280.0992" y="156.7896"/><line style="stroke:#181818;stroke-width:0.9375;stroke-dasharray:9.375,9.375;" x1="286.2415" x2="286.2415" y1="156.7896" y2="1312.782"/></g><g><title>CC</title><rect fill="#000000" fill-opacity="0.00000" height="1155.9924" width="15" x="362.2888" y="156.7896"/><line style="stroke:#181818;stroke-width:0.9375;stroke-dasharray:9.375,9.375;" x1="369.5819" x2="369.5819" y1="156.7896" y2="1312.782"/></g><g><title>CN</title><rect fill="#000000" fill-opacity="0.00000" height="1155.9924" width="15" x="445.2026" y="156.7896"/><line style="stroke:#181818;stroke-width:0.9375;stroke-dasharray:9.375,9.375;" x1="452.4957" x2="452.4957" y1="156.7896" y2="1312.782"/></g><g><title>OUT</title><rect fill="#000000" fill-opacity="0.00000" height="1155.9924" width="15" x="536.8643" y="156.7896"/><line style="stroke:#181818;stroke-width:0.9375;stroke-dasharray:9.375,9.375;" x1="542.9095" x2="542.9095" y1="156.7896" y2="1312.782"/></g><g><title>WM</title><rect fill="#000000" fill-opacity="0.00000" height="1155.9924" width="15" x="632.8903" y="156.7896"/><line style="stroke:#181818;stroke-width:0.9375;stroke-dasharray:9.375,9.375;" x1="639.5691" x2="639.5691" y1="156.7896" y2="1312.782"/></g><g><title>EF</title><rect fill="#000000" fill-opacity="0.00000" height="1155.9924" width="15" x="899.729" y="156.7896"/><line style="stroke:#181818;stroke-width:0.9375;stroke-dasharray:9.375,9.375;" x1="905.4575" x2="905.4575" y1="156.7896" y2="1312.782"/></g><g><title>RE</title><rect fill="#000000" fill-opacity="0.00000" height="1155.9924" width="15" x="979.7333" y="156.7896"/><line style="stroke:#181818;stroke-width:0.9375;stroke-dasharray:9.375,9.375;" x1="985.8755" x2="985.8755" y1="156.7896" y2="1312.782"/></g><g><title>CC</title><rect fill="#000000" fill-opacity="0.00000" height="1155.9924" width="15" x="1196.6757" y="156.7896"/><line style="stroke:#181818;stroke-width:0.9375;stroke-dasharray:9.375,9.375;" x1="1203.9688" x2="1203.9688" y1="156.7896" y2="1312.782"/></g><g><title>CN</title><rect fill="#000000" fill-opacity="0.00000" height="1155.9924" width="15" x="1393.1396" y="156.7896"/><line style="stroke:#181818;stroke-width:0.9375;stroke-dasharray:9.375,9.375;" x1="1400.4327" x2="1400.4327" y1="156.7896" y2="1312.782"/></g><g><title>OUT</title><rect fill="#000000" fill-opacity="0.00000" height="1155.9924" width="15" x="1484.8013" y="156.7896"/><line style="stroke:#181818;stroke-width:0.9375;stroke-dasharray:9.375,9.375;" x1="1490.8466" x2="1490.8466" y1="156.7896" y2="1312.782"/></g><g class="participant participant-head" data-participant="Developer"><text fill="#000000" font-family="sans-serif" font-size="26.25" lengthAdjust="spacing" textLength="46.6809" x="9.375" y="150.2014">Dev</text><ellipse cx="38.3405" cy="25.3125" fill="#E3E3E3" rx="15" ry="15" style="stroke:#181818;stroke-width:0.9375;"/><path d="M38.3405,40.3125 L38.3405,90.9375 M13.9655,55.3125 L62.7155,55.3125 M38.3405,90.9375 L13.9655,119.0625 M38.3405,90.9375 L62.7155,119.0625" fill="none" style="stroke:#181818;stroke-width:0.9375;"/></g><g class="participant participant-tail" data-participant="Developer"><text fill="#000000" font-family="sans-serif" font-size="26.25" lengthAdjust="spacing" textLength="46.6809" x="9.375" y="1339.2334">Dev</text><ellipse cx="38.3405" cy="1361.759" fill="#E3E3E3" rx="15" ry="15" style="stroke:#181818;stroke-width:0.9375;"/><path d="M38.3405,1376.759 L38.3405,1427.384 M13.9655,1391.759 L62.7155,1391.759 M38.3405,1427.384 L13.9655,1455.509 M38.3405,1427.384 L62.7155,1455.509" fill="none" style="stroke:#181818;stroke-width:0.9375;"/></g><g class="participant participant-head" data-participant="WorkflowManager"><rect fill="#E3E3E3" height="61.1646" rx="4.6875" ry="4.6875" style="stroke:#181818;stroke-width:0.9375;" width="72.8925" x="86.0559" y="93.75"/><text fill="#000000" font-family="sans-serif" font-size="26.25" lengthAdjust="spacing" textLength="46.6425" x="99.1809" y="135.2014">WM</text></g><g class="participant participant-tail" data-participant="WorkflowManager"><rect fill="#E3E3E3" height="61.1646" rx="4.6875" ry="4.6875" style="stroke:#181818;stroke-width:0.9375;" width="72.8925" x="86.0559" y="1310.907"/><text fill="#000000" font-family="sans-serif" font-size="26.25" lengthAdjust="spacing" textLength="46.6425" x="99.1809" y="1352.3584">WM</text></g><g class="participant participant-head" data-participant="ExecutorFactory"><rect fill="#E3E3E3" height="61.1646" rx="4.6875" ry="4.6875" style="stroke:#181818;stroke-width:0.9375;" width="59.7931" x="177.6984" y="93.75"/><text fill="#000000" font-family="sans-serif" font-size="26.25" lengthAdjust="spacing" textLength="33.5431" x="190.8234" y="135.2014">EF</text></g><g class="participant participant-tail" data-participant="ExecutorFactory"><rect fill="#E3E3E3" height="61.1646" rx="4.6875" ry="4.6875" style="stroke:#181818;stroke-width:0.9375;" width="59.7931" x="177.6984" y="1310.907"/><text fill="#000000" font-family="sans-serif" font-size="26.25" lengthAdjust="spacing" textLength="33.5431" x="190.8234" y="1352.3584">EF</text></g><g class="participant participant-head" data-participant="RemoteExecutor"><rect fill="#E3E3E3" height="61.1646" rx="4.6875" ry="4.6875" style="stroke:#181818;stroke-width:0.9375;" width="62.7155" x="256.2415" y="93.75"/><text fill="#000000" font-family="sans-serif" font-size="26.25" lengthAdjust="spacing" textLength="36.4655" x="269.3665" y="135.2014">RE</text></g><g class="participant participant-tail" data-participant="RemoteExecutor"><rect fill="#E3E3E3" height="61.1646" rx="4.6875" ry="4.6875" style="stroke:#181818;stroke-width:0.9375;" width="62.7155" x="256.2415" y="1310.907"/><text fill="#000000" font-family="sans-serif" font-size="26.25" lengthAdjust="spacing" textLength="36.4655" x="269.3665" y="1352.3584">RE</text></g><g class="participant participant-head" data-participant="ComfyCompiler"><rect fill="#E3E3E3" height="61.1646" rx="4.6875" ry="4.6875" style="stroke:#181818;stroke-width:0.9375;" width="64.1638" x="337.7069" y="93.75"/><text fill="#000000" font-family="sans-serif" font-size="26.25" lengthAdjust="spacing" textLength="37.9138" x="350.8319" y="135.2014">CC</text></g><g class="participant participant-tail" data-participant="ComfyCompiler"><rect fill="#E3E3E3" height="61.1646" rx="4.6875" ry="4.6875" style="stroke:#181818;stroke-width:0.9375;" width="64.1638" x="337.7069" y="1310.907"/><text fill="#000000" font-family="sans-serif" font-size="26.25" lengthAdjust="spacing" textLength="37.9138" x="350.8319" y="1352.3584">CC</text></g><g class="participant participant-head" data-participant="ComfyConnector"><rect fill="#E3E3E3" height="61.1646" rx="4.6875" ry="4.6875" style="stroke:#181818;stroke-width:0.9375;" width="64.1638" x="420.6207" y="93.75"/><text fill="#000000" font-family="sans-serif" font-size="26.25" lengthAdjust="spacing" textLength="37.9138" x="433.7457" y="135.2014">CN</text></g><g class="participant participant-tail" data-participant="ComfyConnector"><rect fill="#E3E3E3" height="61.1646" rx="4.6875" ry="4.6875" style="stroke:#181818;stroke-width:0.9375;" width="64.1638" x="420.6207" y="1310.907"/><text fill="#000000" font-family="sans-serif" font-size="26.25" lengthAdjust="spacing" textLength="37.9138" x="433.7457" y="1352.3584">CN</text></g><g class="participant participant-head" data-participant="OutputHandler"><rect fill="#E3E3E3" height="61.1646" rx="4.6875" ry="4.6875" style="stroke:#181818;stroke-width:0.9375;" width="81.6595" x="503.5345" y="93.75"/><text fill="#000000" font-family="sans-serif" font-size="26.25" lengthAdjust="spacing" textLength="55.4095" x="516.6595" y="135.2014">OUT</text></g><g class="participant participant-tail" data-participant="OutputHandler"><rect fill="#E3E3E3" height="61.1646" rx="4.6875" ry="4.6875" style="stroke:#181818;stroke-width:0.9375;" width="81.6595" x="503.5345" y="1310.907"/><text fill="#000000" font-family="sans-serif" font-size="26.25" lengthAdjust="spacing" textLength="55.4095" x="516.6595" y="1352.3584">OUT</text></g><g class="participant participant-head" data-participant="WM"><rect fill="#E3E3E3" height="61.1646" rx="4.6875" ry="4.6875" style="stroke:#181818;stroke-width:0.9375;" width="72.8925" x="603.9441" y="93.75"/><text fill="#000000" font-family="sans-serif" font-size="26.25" lengthAdjust="spacing" textLength="46.6425" x="617.0691" y="135.2014">WM</text></g><g class="participant participant-tail" data-participant="WM"><rect fill="#E3E3E3" height="61.1646" rx="4.6875" ry="4.6875" style="stroke:#181818;stroke-width:0.9375;" width="72.8925" x="603.9441" y="1310.907"/><text fill="#000000" font-family="sans-serif" font-size="26.25" lengthAdjust="spacing" textLength="46.6425" x="617.0691" y="1352.3584">WM</text></g><g class="participant participant-head" data-participant="EF"><rect fill="#E3E3E3" height="61.1646" rx="4.6875" ry="4.6875" style="stroke:#181818;stroke-width:0.9375;" width="59.7931" x="877.3325" y="93.75"/><text fill="#000000" font-family="sans-serif" font-size="26.25" lengthAdjust="spacing" textLength="33.5431" x="890.4575" y="135.2014">EF</text></g><g class="participant participant-tail" data-participant="EF"><rect fill="#E3E3E3" height="61.1646" rx="4.6875" ry="4.6875" style="stroke:#181818;stroke-width:0.9375;" width="59.7931" x="877.3325" y="1310.907"/><text fill="#000000" font-family="sans-serif" font-size="26.25" lengthAdjust="spacing" textLength="33.5431" x="890.4575" y="1352.3584">EF</text></g><g class="participant participant-head" data-participant="RE"><rect fill="#E3E3E3" height="61.1646" rx="4.6875" ry="4.6875" style="stroke:#181818;stroke-width:0.9375;" width="62.7155" x="955.8755" y="93.75"/><text fill="#000000" font-family="sans-serif" font-size="26.25" lengthAdjust="spacing" textLength="36.4655" x="969.0005" y="135.2014">RE</text></g><g class="participant participant-tail" data-participant="RE"><rect fill="#E3E3E3" height="61.1646" rx="4.6875" ry="4.6875" style="stroke:#181818;stroke-width:0.9375;" width="62.7155" x="955.8755" y="1310.907"/><text fill="#000000" font-family="sans-serif" font-size="26.25" lengthAdjust="spacing" textLength="36.4655" x="969.0005" y="1352.3584">RE</text></g><g class="participant participant-head" data-participant="CC"><rect fill="#E3E3E3" height="61.1646" rx="4.6875" ry="4.6875" style="stroke:#181818;stroke-width:0.9375;" width="64.1638" x="1172.0938" y="93.75"/><text fill="#000000" font-family="sans-serif" font-size="26.25" lengthAdjust="spacing" textLength="37.9138" x="1185.2188" y="135.2014">CC</text></g><g class="participant participant-tail" data-participant="CC"><rect fill="#E3E3E3" height="61.1646" rx="4.6875" ry="4.6875" style="stroke:#181818;stroke-width:0.9375;" width="64.1638" x="1172.0938" y="1310.907"/><text fill="#000000" font-family="sans-serif" font-size="26.25" lengthAdjust="spacing" textLength="37.9138" x="1185.2188" y="1352.3584">CC</text></g><g class="participant participant-head" data-participant="CN"><rect fill="#E3E3E3" height="61.1646" rx="4.6875" ry="4.6875" style="stroke:#181818;stroke-width:0.9375;" width="64.1638" x="1368.5577" y="93.75"/><text fill="#000000" font-family="sans-serif" font-size="26.25" lengthAdjust="spacing" textLength="37.9138" x="1381.6827" y="135.2014">CN</text></g><g class="participant participant-tail" data-participant="CN"><rect fill="#E3E3E3" height="61.1646" rx="4.6875" ry="4.6875" style="stroke:#181818;stroke-width:0.9375;" width="64.1638" x="1368.5577" y="1310.907"/><text fill="#000000" font-family="sans-serif" font-size="26.25" lengthAdjust="spacing" textLength="37.9138" x="1381.6827" y="1352.3584">CN</text></g><g class="participant participant-head" data-participant="OUT"><rect fill="#E3E3E3" height="61.1646" rx="4.6875" ry="4.6875" style="stroke:#181818;stroke-width:0.9375;" width="81.6595" x="1451.4716" y="93.75"/><text fill="#000000" font-family="sans-serif" font-size="26.25" lengthAdjust="spacing" textLength="55.4095" x="1464.5966" y="135.2014">OUT</text></g><g class="participant participant-tail" data-participant="OUT"><rect fill="#E3E3E3" height="61.1646" rx="4.6875" ry="4.6875" style="stroke:#181818;stroke-width:0.9375;" width="81.6595" x="1451.4716" y="1310.907"/><text fill="#000000" font-family="sans-serif" font-size="26.25" lengthAdjust="spacing" textLength="55.4095" x="1464.5966" y="1352.3584">OUT</text></g><g><title>RE</title><rect fill="#FFFFFF" height="707.7979" style="stroke:#181818;stroke-width:1.875;" width="18.75" x="977.8583" y="453.8928"/></g><g class="message" data-participant-1="Developer" data-participant-2="WM"><polygon fill="#181818" points="617.8903,211.7102,636.6403,219.2102,617.8903,226.7102,625.3903,219.2102" style="stroke:#181818;stroke-width:1.875;"/><line style="stroke:#181818;stroke-width:1.875;" x1="38.3405" x2="629.1403" y1="219.2102" y2="219.2102"/><text fill="#000000" font-family="sans-serif" font-size="24.375" lengthAdjust="spacing" textLength="534.2148" x="51.4655" y="209.3427">set_execution_context(mode="remote", base_url)</text></g><g class="message" data-participant-1="Developer" data-participant-2="WM"><polygon fill="#181818" points="617.8903,270.3809,636.6403,277.8809,617.8903,285.3809,625.3903,277.8809" style="stroke:#181818;stroke-width:1.875;"/><line style="stroke:#181818;stroke-width:1.875;" x1="38.3405" x2="629.1403" y1="277.8809" y2="277.8809"/><text fill="#000000" font-family="sans-serif" font-size="24.375" lengthAdjust="spacing" textLength="101.6061" x="51.4655" y="268.0133">execute()</text></g><g class="message" data-participant-1="WM" data-participant-2="EF"><polygon fill="#181818" points="884.729,329.0515,903.479,336.5515,884.729,344.0515,892.229,336.5515" style="stroke:#181818;stroke-width:1.875;"/><line style="stroke:#181818;stroke-width:1.875;" x1="640.3903" x2="895.979" y1="336.5515" y2="336.5515"/><text fill="#000000" font-family="sans-serif" font-size="24.375" lengthAdjust="spacing" textLength="221.8387" x="653.5153" y="326.684">create("remote", ctx)</text></g><g class="message" data-participant-1="EF" data-participant-2="WM"><polygon fill="#181818" points="661.0153,387.7222,642.2653,395.2222,661.0153,402.7222,653.5153,395.2222" style="stroke:#181818;stroke-width:1.875;"/><line style="stroke:#181818;stroke-width:1.875;stroke-dasharray:3.75,3.75;" x1="649.7653" x2="905.354" y1="395.2222" y2="395.2222"/><text fill="#000000" font-family="sans-serif" font-size="24.375" lengthAdjust="spacing" textLength="181.539" x="672.2653" y="385.3546">RemoteExecutor</text></g><g class="message" data-participant-1="WM" data-participant-2="RE"><polygon fill="#181818" points="955.3583,446.3928,974.1083,453.8928,955.3583,461.3928,962.8583,453.8928" style="stroke:#181818;stroke-width:1.875;"/><line style="stroke:#181818;stroke-width:1.875;" x1="640.3903" x2="966.6083" y1="453.8928" y2="453.8928"/><text fill="#000000" font-family="sans-serif" font-size="24.375" lengthAdjust="spacing" textLength="208.6395" x="653.5153" y="444.0253">execute(graph, ctx)</text></g><g class="message" data-participant-1="RE" data-participant-2="CC"><polygon fill="#181818" points="1181.6757,505.0635,1200.4257,512.5635,1181.6757,520.0635,1189.1757,512.5635" style="stroke:#181818;stroke-width:1.875;"/><line style="stroke:#181818;stroke-width:1.875;" x1="996.6083" x2="1192.9257" y1="512.5635" y2="512.5635"/><text fill="#000000" font-family="sans-serif" font-size="24.375" lengthAdjust="spacing" textLength="162.5674" x="1009.7333" y="502.6959">compile(graph)</text></g><g class="message" data-participant-1="CC" data-participant-2="RE"><polygon fill="#181818" points="1017.2333,563.7341,998.4833,571.2341,1017.2333,578.7341,1009.7333,571.2341" style="stroke:#181818;stroke-width:1.875;"/><line style="stroke:#181818;stroke-width:1.875;stroke-dasharray:3.75,3.75;" x1="1005.9833" x2="1202.3007" y1="571.2341" y2="571.2341"/><text fill="#000000" font-family="sans-serif" font-size="24.375" lengthAdjust="spacing" textLength="85.3839" x="1028.4833" y="561.3666">payload</text></g><g class="message" data-participant-1="RE" data-participant-2="CN"><polygon fill="#181818" points="1378.1396,622.4048,1396.8896,629.9048,1378.1396,637.4048,1385.6396,629.9048" style="stroke:#181818;stroke-width:1.875;"/><line style="stroke:#181818;stroke-width:1.875;" x1="996.6083" x2="1389.3896" y1="629.9048" y2="629.9048"/><text fill="#000000" font-family="sans-serif" font-size="24.375" lengthAdjust="spacing" textLength="70.459" x="1009.7333" y="620.0372">open()</text></g><g class="message" data-participant-1="RE" data-participant-2="CN"><polygon fill="#181818" points="1378.1396,681.0754,1396.8896,688.5754,1378.1396,696.0754,1385.6396,688.5754" style="stroke:#181818;stroke-width:1.875;"/><line style="stroke:#181818;stroke-width:1.875;" x1="996.6083" x2="1389.3896" y1="688.5754" y2="688.5754"/><text fill="#000000" font-family="sans-serif" font-size="24.375" lengthAdjust="spacing" textLength="359.0314" x="1009.7333" y="678.7079">post_workflow(payload, client_id)</text></g><g class="message" data-participant-1="CN" data-participant-2="RE"><polygon fill="#181818" points="1017.2333,739.7461,998.4833,747.2461,1017.2333,754.7461,1009.7333,747.2461" style="stroke:#181818;stroke-width:1.875;"/><line style="stroke:#181818;stroke-width:1.875;stroke-dasharray:3.75,3.75;" x1="1005.9833" x2="1398.7646" y1="747.2461" y2="747.2461"/><text fill="#000000" font-family="sans-serif" font-size="24.375" lengthAdjust="spacing" textLength="108.3902" x="1028.4833" y="737.3785">prompt_id</text></g><g class="message" data-participant-1="RE" data-participant-2="CN"><polygon fill="#181818" points="1378.1396,798.4167,1396.8896,805.9167,1378.1396,813.4167,1385.6396,805.9167" style="stroke:#181818;stroke-width:1.875;"/><line style="stroke:#181818;stroke-width:1.875;" x1="996.6083" x2="1389.3896" y1="805.9167" y2="805.9167"/><text fill="#000000" font-family="sans-serif" font-size="24.375" lengthAdjust="spacing" textLength="337.3224" x="1009.7333" y="796.0492">subscribe(prompt_id, observer)</text></g><path d="M937.1255,834.0417 L1072.9404,834.0417 L1072.9404,851.4624 L1054.1904,870.2124 L937.1255,870.2124 L937.1255,834.0417" fill="#EEEEEE" style="stroke:#000000;stroke-width:2.8125;"/><rect fill="none" height="153.512" style="stroke:#000000;stroke-width:2.8125;" width="514.346" x="937.1255" y="834.0417"/><text fill="#000000" font-family="sans-serif" font-size="24.375" font-weight="bold" lengthAdjust="spacing" textLength="51.4398" x="965.2505" y="862.2198">loop</text><text fill="#000000" font-family="sans-serif" font-size="20.625" font-weight="bold" lengthAdjust="spacing" textLength="214.3872" x="1101.0654" y="860.0482">[until {success|error}]</text><g class="message" data-participant-1="RE" data-participant-2="CN"><polygon fill="#181818" points="1378.1396,906.3831,1396.8896,913.8831,1378.1396,921.3831,1385.6396,913.8831" style="stroke:#181818;stroke-width:1.875;"/><line style="stroke:#181818;stroke-width:1.875;" x1="996.6083" x2="1389.3896" y1="913.8831" y2="913.8831"/><text fill="#000000" font-family="sans-serif" font-size="24.375" lengthAdjust="spacing" textLength="189.6561" x="1009.7333" y="904.0155">status(prompt_id)</text></g><g class="message" data-participant-1="CN" data-participant-2="RE"><polygon fill="#181818" points="1017.2333,965.0537,998.4833,972.5537,1017.2333,980.0537,1009.7333,972.5537" style="stroke:#181818;stroke-width:1.875;"/><line style="stroke:#181818;stroke-width:1.875;stroke-dasharray:3.75,3.75;" x1="1005.9833" x2="1398.7646" y1="972.5537" y2="972.5537"/><text fill="#000000" font-family="sans-serif" font-size="24.375" lengthAdjust="spacing" textLength="163.9838" x="1028.4833" y="962.6862">{state: running}</text></g><g class="message" data-participant-1="RE" data-participant-2="CN"><polygon fill="#181818" points="1378.1396,1036.8494,1396.8896,1044.3494,1378.1396,1051.8494,1385.6396,1044.3494" style="stroke:#181818;stroke-width:1.875;"/><line style="stroke:#181818;stroke-width:1.875;" x1="996.6083" x2="1389.3896" y1="1044.3494" y2="1044.3494"/><text fill="#000000" font-family="sans-serif" font-size="24.375" lengthAdjust="spacing" textLength="270.9814" x="1009.7333" y="1034.4818">fetch_outputs(prompt_id)</text></g><g class="message" data-participant-1="CN" data-participant-2="RE"><polygon fill="#181818" points="1017.2333,1095.52,998.4833,1103.02,1017.2333,1110.52,1009.7333,1103.02" style="stroke:#181818;stroke-width:1.875;"/><line style="stroke:#181818;stroke-width:1.875;stroke-dasharray:3.75,3.75;" x1="1005.9833" x2="1398.7646" y1="1103.02" y2="1103.02"/><text fill="#000000" font-family="sans-serif" font-size="24.375" lengthAdjust="spacing" textLength="85.3363" x="1028.4833" y="1093.1525">artifacts</text></g><g class="message" data-participant-1="RE" data-participant-2="OUT"><polygon fill="#181818" points="1469.8013,1154.1907,1488.5513,1161.6907,1469.8013,1169.1907,1477.3013,1161.6907" style="stroke:#181818;stroke-width:1.875;"/><line style="stroke:#181818;stroke-width:1.875;" x1="987.2333" x2="1481.0513" y1="1161.6907" y2="1161.6907"/><text fill="#000000" font-family="sans-serif" font-size="24.375" lengthAdjust="spacing" textLength="277.6941" x="1000.3583" y="1151.8231">store(prompt_id, artifacts)</text></g><g class="message" data-participant-1="RE" data-participant-2="WM"><polygon fill="#181818" points="661.0153,1212.8613,642.2653,1220.3613,661.0153,1227.8613,653.5153,1220.3613" style="stroke:#181818;stroke-width:1.875;"/><line style="stroke:#181818;stroke-width:1.875;stroke-dasharray:3.75,3.75;" x1="649.7653" x2="985.3583" y1="1220.3613" y2="1220.3613"/><text fill="#000000" font-family="sans-serif" font-size="24.375" lengthAdjust="spacing" textLength="168.0066" x="672.2653" y="1210.4938">{state, artifacts}</text></g><g class="message" data-participant-1="WM" data-participant-2="Developer"><polygon fill="#181818" points="58.9655,1271.532,40.2155,1279.032,58.9655,1286.532,51.4655,1279.032" style="stroke:#181818;stroke-width:1.875;"/><line style="stroke:#181818;stroke-width:1.875;stroke-dasharray:3.75,3.75;" x1="47.7155" x2="638.5153" y1="1279.032" y2="1279.032"/><text fill="#000000" font-family="sans-serif" font-size="24.375" lengthAdjust="spacing" textLength="59.6045" x="70.2155" y="1269.1644">result</text></g><!--SRC=[PLBBJiCm4BpxAonEZKGbkA5AS0cfk52a2iGnSfrDQ-5uBJ_w4FJVMQSXZt999C_ixEpi-Yzbh72YuGqQb3k73V3W8Z3V8tudAZmei-Mrq7wCL5Rn-uSxneGCwFWpxBdmwGSQBJX6hA2aii84_lcQi4zqNxN6mwimOdl5A9Q9KHn1Hb9Rjfgd2MDT9COQ6WpmnviGyZmHScpg4tsiqbSjyjK8DmRajS3RntjYlCLWOtWHfaeAh9-8pvzea0Nt44fe3IWqfKGJu1Xc3LRmUEDQUpUtV2CybD7fx7_zfHPc6MEK2pqMomMN3WIz3G8o73D6gSoxggl1kz9rCUXjdR2xhf3oKtiI909Zb1nHyvowN7AvK3D6YSqx4IjE6aNLarSBJfuDcHmUBFfG7hebpheAQgWLc52gYWHNWo1Taqsl8m4VDruwjO5PZzvot7XmUt0KXqQqF9gWDF_sKKhm_WUSGtTcd8zaWWZH3nePeQFEtmc71NVH63hSCmCpcQk687SbjbkUg8mqqbNK5AB_AwJRI8tHJRptj8nLy2_pRdCNFoFokLqUeVrfa5dmKOTV]--></g></svg>