<svg xmlns="http://www.w3.org/2000/svg" xmlns:xlink="http://www.w3.org/1999/xlink" contentStyleType="text/css" data-diagram-type="SEQUENCE" height="1021.5px" preserveAspectRatio="none" style="width:1035px;height:1021px;background:#FFFFFF;" version="1.1" viewBox="0 0 1035 1021" width="1035px" zoomAndPan="magnify"><defs/><g><g><title>LE</title><rect fill="#FFFFFF" height="530.2859" style="stroke:#181818;stroke-width:1.125;" width="11.25" x="617.9788" y="307.5381"/></g><rect fill="none" height="92.1072" style="stroke:#000000;stroke-width:1.6875;" width="384.4622" x="594.8465" y="606.0322"/><g><title>Dev</title><rect fill="#000000" fill-opacity="0.00000" height="834.405" width="9" x="18.5043" y="94.0737"/><line style="stroke:#181818;stroke-width:0.5625;stroke-dasharray:5.625,5.625;" x1="22.5" x2="22.5" y1="94.0737" y2="928.4788"/></g><g><title>WM</title><rect fill="#000000" fill-opacity="0.00000" height="834.405" width="9" x="69.0013" y="94.0737"/><line style="stroke:#181818;stroke-width:0.5625;stroke-dasharray:5.625,5.625;" x1="73.0085" x2="73.0085" y1="94.0737" y2="928.4788"/></g><g><title>EF</title><rect fill="#000000" fill-opacity="0.00000" height="834.405" width="9" x="120.0569" y="94.0737"/><line style="stroke:#181818;stroke-width:0.5625;stroke-dasharray:5.625,5.625;" x1="123.494" x2="123.494" y1="94.0737" y2="928.4788"/></g><g><title>LE</title><rect fill="#000000" fill-opacity="0.00000" height="834.405" width="9" x="166.7521" y="94.0737"/><line style="stroke:#181818;stroke-width:0.5625;stroke-dasharray:5.625,5.625;" x1="170.6199" x2="170.6199" y1="94.0737" y2="928.4788"/></g><g><title>SM</title><rect fill="#000000" fill-opacity="0.00000" height="834.405" width="9" x="215.1969" y="94.0737"/><line style="stroke:#181818;stroke-width:0.5625;stroke-dasharray:5.625,5.625;" x1="219.1344" x2="219.1344" y1="94.0737" y2="928.4788"/></g><g><title>CC</title><rect fill="#000000" fill-opacity="0.00000" height="834.405" width="9" x="265.3835" y="94.0737"/><line style="stroke:#181818;stroke-width:0.5625;stroke-dasharray:5.625,5.625;" x1="269.7594" x2="269.7594" y1="94.0737" y2="928.4788"/></g><g><title>CN</title><rect fill="#000000" fill-opacity="0.00000" height="834.405" width="9" x="315.1318" y="94.0737"/><line style="stroke:#181818;stroke-width:0.5625;stroke-dasharray:5.625,5.625;" x1="319.5077" x2="319.5077" y1="94.0737" y2="928.4788"/></g><g><title>OUT</title><rect fill="#000000" fill-opacity="0.00000" height="834.405" width="9" x="370.1288" y="94.0737"/><line style="stroke:#181818;stroke-width:0.5625;stroke-dasharray:5.625,5.625;" x1="373.756" x2="373.756" y1="94.0737" y2="928.4788"/></g><g><title>WM</title><rect fill="#000000" fill-opacity="0.00000" height="834.405" width="9" x="427.7444" y="94.0737"/><line style="stroke:#181818;stroke-width:0.5625;stroke-dasharray:5.625,5.625;" x1="431.7517" x2="431.7517" y1="94.0737" y2="928.4788"/></g><g><title>EF</title><rect fill="#000000" fill-opacity="0.00000" height="834.405" width="9" x="572.4086" y="94.0737"/><line style="stroke:#181818;stroke-width:0.5625;stroke-dasharray:5.625,5.625;" x1="575.8456" x2="575.8456" y1="94.0737" y2="928.4788"/></g><g><title>LE</title><rect fill="#000000" fill-opacity="0.00000" height="834.405" width="9" x="619.1038" y="94.0737"/><line style="stroke:#181818;stroke-width:0.5625;stroke-dasharray:5.625,5.625;" x1="622.9715" x2="622.9715" y1="94.0737" y2="928.4788"/></g><g><title>SM</title><rect fill="#000000" fill-opacity="0.00000" height="834.405" width="9" x="844.3746" y="94.0737"/><line style="stroke:#181818;stroke-width:0.5625;stroke-dasharray:5.625,5.625;" x1="848.3121" x2="848.3121" y1="94.0737" y2="928.4788"/></g><g><title>CC</title><rect fill="#000000" fill-opacity="0.00000" height="834.405" width="9" x="894.5612" y="94.0737"/><line style="stroke:#181818;stroke-width:0.5625;stroke-dasharray:5.625,5.625;" x1="898.9371" x2="898.9371" y1="94.0737" y2="928.4788"/></g><g><title>CN</title><rect fill="#000000" fill-opacity="0.00000" height="834.405" width="9" x="944.3095" y="94.0737"/><line style="stroke:#181818;stroke-width:0.5625;stroke-dasharray:5.625,5.625;" x1="948.6854" x2="948.6854" y1="94.0737" y2="928.4788"/></g><g><title>OUT</title><rect fill="#000000" fill-opacity="0.00000" height="834.405" width="9" x="999.3065" y="94.0737"/><line style="stroke:#181818;stroke-width:0.5625;stroke-dasharray:5.625,5.625;" x1="1002.9337" x2="1002.9337" y1="94.0737" y2="928.4788"/></g><g class="participant participant-head" data-participant="Developer"><text fill="#000000" font-family="sans-serif" font-size="15.75" lengthAdjust="spacing" textLength="28.0085" x="5.625" y="90.1208">Dev</text><ellipse cx="23.0043" cy="15.1875" fill="#E3E3E3" rx="9" ry="9" style="stroke:#181818;stroke-width:0.5625;"/><path d="M23.0043,24.1875 L23.0043,54.5625 M8.3793,33.1875 L37.6293,33.1875 M23.0043,54.5625 L8.3793,71.4375 M23.0043,54.5625 L37.6293,71.4375" fill="none" style="stroke:#181818;stroke-width:0.5625;"/></g><g class="participant participant-tail" data-participant="Developer"><text fill="#000000" font-family="sans-serif" font-size="15.75" lengthAdjust="spacing" textLength="28.0085" x="5.625" y="944.3496">Dev</text><ellipse cx="23.0043" cy="957.865" fill="#E3E3E3" rx="9" ry="9" style="stroke:#181818;stroke-width:0.5625;"/><path d="M23.0043,966.865 L23.0043,997.24 M8.3793,975.865 L37.6293,975.865 M23.0043,997.24 L8.3793,1014.115 M23.0043,997.24 L37.6293,1014.115" fill="none" style="stroke:#181818;stroke-width:0.5625;"/></g><g class="participant participant-head" data-participant="WorkflowManager"><rect fill="#E3E3E3" height="36.6987" rx="2.8125" ry="2.8125" style="stroke:#181818;stroke-width:0.5625;" width="43.7355" x="51.6335" y="56.25"/><text fill="#000000" font-family="sans-serif" font-size="15.75" lengthAdjust="spacing" textLength="27.9855" x="59.5085" y="81.1208">WM</text></g><g class="participant participant-tail" data-participant="WorkflowManager"><rect fill="#E3E3E3" height="36.6987" rx="2.8125" ry="2.8125" style="stroke:#181818;stroke-width:0.5625;" width="43.7355" x="51.6335" y="927.3538"/><text fill="#000000" font-family="sans-serif" font-size="15.75" lengthAdjust="spacing" textLength="27.9855" x="59.5085" y="952.2246">WM</text></g><g class="participant participant-head" data-participant="ExecutorFactory"><rect fill="#E3E3E3" height="36.6987" rx="2.8125" ry="2.8125" style="stroke:#181818;stroke-width:0.5625;" width="35.8759" x="106.619" y="56.25"/><text fill="#000000" font-family="sans-serif" font-size="15.75" lengthAdjust="spacing" textLength="20.1259" x="114.494" y="81.1208">EF</text></g><g class="participant participant-tail" data-participant="ExecutorFactory"><rect fill="#E3E3E3" height="36.6987" rx="2.8125" ry="2.8125" style="stroke:#181818;stroke-width:0.5625;" width="35.8759" x="106.619" y="927.3538"/><text fill="#000000" font-family="sans-serif" font-size="15.75" lengthAdjust="spacing" textLength="20.1259" x="114.494" y="952.2246">EF</text></g><g class="participant participant-head" data-participant="LocalExecutor"><rect fill="#E3E3E3" height="36.6987" rx="2.8125" ry="2.8125" style="stroke:#181818;stroke-width:0.5625;" width="35.0145" x="153.7449" y="56.25"/><text fill="#000000" font-family="sans-serif" font-size="15.75" lengthAdjust="spacing" textLength="19.2645" x="161.6199" y="81.1208">LE</text></g><g class="participant participant-tail" data-participant="LocalExecutor"><rect fill="#E3E3E3" height="36.6987" rx="2.8125" ry="2.8125" style="stroke:#181818;stroke-width:0.5625;" width="35.0145" x="153.7449" y="927.3538"/><text fill="#000000" font-family="sans-serif" font-size="15.75" lengthAdjust="spacing" textLength="19.2645" x="161.6199" y="952.2246">LE</text></g><g class="participant participant-head" data-participant="ComfyServerManager"><rect fill="#E3E3E3" height="36.6987" rx="2.8125" ry="2.8125" style="stroke:#181818;stroke-width:0.5625;" width="39.375" x="200.0094" y="56.25"/><text fill="#000000" font-family="sans-serif" font-size="15.75" lengthAdjust="spacing" textLength="23.625" x="207.8844" y="81.1208">SM</text></g><g class="participant participant-tail" data-participant="ComfyServerManager"><rect fill="#E3E3E3" height="36.6987" rx="2.8125" ry="2.8125" style="stroke:#181818;stroke-width:0.5625;" width="39.375" x="200.0094" y="927.3538"/><text fill="#000000" font-family="sans-serif" font-size="15.75" lengthAdjust="spacing" textLength="23.625" x="207.8844" y="952.2246">SM</text></g><g class="participant participant-head" data-participant="ComfyCompiler"><rect fill="#E3E3E3" height="36.6987" rx="2.8125" ry="2.8125" style="stroke:#181818;stroke-width:0.5625;" width="38.4983" x="250.6344" y="56.25"/><text fill="#000000" font-family="sans-serif" font-size="15.75" lengthAdjust="spacing" textLength="22.7483" x="258.5094" y="81.1208">CC</text></g><g class="participant participant-tail" data-participant="ComfyCompiler"><rect fill="#E3E3E3" height="36.6987" rx="2.8125" ry="2.8125" style="stroke:#181818;stroke-width:0.5625;" width="38.4983" x="250.6344" y="927.3538"/><text fill="#000000" font-family="sans-serif" font-size="15.75" lengthAdjust="spacing" textLength="22.7483" x="258.5094" y="952.2246">CC</text></g><g class="participant participant-head" data-participant="ComfyConnector"><rect fill="#E3E3E3" height="36.6987" rx="2.8125" ry="2.8125" style="stroke:#181818;stroke-width:0.5625;" width="38.4983" x="300.3827" y="56.25"/><text fill="#000000" font-family="sans-serif" font-size="15.75" lengthAdjust="spacing" textLength="22.7483" x="308.2577" y="81.1208">CN</text></g><g class="participant participant-tail" data-participant="ComfyConnector"><rect fill="#E3E3E3" height="36.6987" rx="2.8125" ry="2.8125" style="stroke:#181818;stroke-width:0.5625;" width="38.4983" x="300.3827" y="927.3538"/><text fill="#000000" font-family="sans-serif" font-size="15.75" lengthAdjust="spacing" textLength="22.7483" x="308.2577" y="952.2246">CN</text></g><g class="participant participant-head" data-participant="OutputHandler"><rect fill="#E3E3E3" height="36.6987" rx="2.8125" ry="2.8125" style="stroke:#181818;stroke-width:0.5625;" width="48.9957" x="350.131" y="56.25"/><text fill="#000000" font-family="sans-serif" font-size="15.75" lengthAdjust="spacing" textLength="33.2457" x="358.006" y="81.1208">OUT</text></g><g class="participant participant-tail" data-participant="OutputHandler"><rect fill="#E3E3E3" height="36.6987" rx="2.8125" ry="2.8125" style="stroke:#181818;stroke-width:0.5625;" width="48.9957" x="350.131" y="927.3538"/><text fill="#000000" font-family="sans-serif" font-size="15.75" lengthAdjust="spacing" textLength="33.2457" x="358.006" y="952.2246">OUT</text></g><g class="participant participant-head" data-participant="WM"><rect fill="#E3E3E3" height="36.6987" rx="2.8125" ry="2.8125" style="stroke:#181818;stroke-width:0.5625;" width="43.7355" x="410.3767" y="56.25"/><text fill="#000000" font-family="sans-serif" font-size="15.75" lengthAdjust="spacing" textLength="27.9855" x="418.2517" y="81.1208">WM</text></g><g class="participant participant-tail" data-participant="WM"><rect fill="#E3E3E3" height="36.6987" rx="2.8125" ry="2.8125" style="stroke:#181818;stroke-width:0.5625;" width="43.7355" x="410.3767" y="927.3538"/><text fill="#000000" font-family="sans-serif" font-size="15.75" lengthAdjust="spacing" textLength="27.9855" x="418.2517" y="952.2246">WM</text></g><g class="participant participant-head" data-participant="EF"><rect fill="#E3E3E3" height="36.6987" rx="2.8125" ry="2.8125" style="stroke:#181818;stroke-width:0.5625;" width="35.8759" x="558.9706" y="56.25"/><text fill="#000000" font-family="sans-serif" font-size="15.75" lengthAdjust="spacing" textLength="20.1259" x="566.8456" y="81.1208">EF</text></g><g class="participant participant-tail" data-participant="EF"><rect fill="#E3E3E3" height="36.6987" rx="2.8125" ry="2.8125" style="stroke:#181818;stroke-width:0.5625;" width="35.8759" x="558.9706" y="927.3538"/><text fill="#000000" font-family="sans-serif" font-size="15.75" lengthAdjust="spacing" textLength="20.1259" x="566.8456" y="952.2246">EF</text></g><g class="participant participant-head" data-participant="LE"><rect fill="#E3E3E3" height="36.6987" rx="2.8125" ry="2.8125" style="stroke:#181818;stroke-width:0.5625;" width="35.0145" x="606.0965" y="56.25"/><text fill="#000000" font-family="sans-serif" font-size="15.75" lengthAdjust="spacing" textLength="19.2645" x="613.9715" y="81.1208">LE</text></g><g class="participant participant-tail" data-participant="LE"><rect fill="#E3E3E3" height="36.6987" rx="2.8125" ry="2.8125" style="stroke:#181818;stroke-width:0.5625;" width="35.0145" x="606.0965" y="927.3538"/><text fill="#000000" font-family="sans-serif" font-size="15.75" lengthAdjust="spacing" textLength="19.2645" x="613.9715" y="952.2246">LE</text></g><g class="participant participant-head" data-participant="SM"><rect fill="#E3E3E3" height="36.6987" rx="2.8125" ry="2.8125" style="stroke:#181818;stroke-width:0.5625;" width="39.375" x="829.1871" y="56.25"/><text fill="#000000" font-family="sans-serif" font-size="15.75" lengthAdjust="spacing" textLength="23.625" x="837.0621" y="81.1208">SM</text></g><g class="participant participant-tail" data-participant="SM"><rect fill="#E3E3E3" height="36.6987" rx="2.8125" ry="2.8125" style="stroke:#181818;stroke-width:0.5625;" width="39.375" x="829.1871" y="927.3538"/><text fill="#000000" font-family="sans-serif" font-size="15.75" lengthAdjust="spacing" textLength="23.625" x="837.0621" y="952.2246">SM</text></g><g class="participant participant-head" data-participant="CC"><rect fill="#E3E3E3" height="36.6987" rx="2.8125" ry="2.8125" style="stroke:#181818;stroke-width:0.5625;" width="38.4983" x="879.8121" y="56.25"/><text fill="#000000" font-family="sans-serif" font-size="15.75" lengthAdjust="spacing" textLength="22.7483" x="887.6871" y="81.1208">CC</text></g><g class="participant participant-tail" data-participant="CC"><rect fill="#E3E3E3" height="36.6987" rx="2.8125" ry="2.8125" style="stroke:#181818;stroke-width:0.5625;" width="38.4983" x="879.8121" y="927.3538"/><text fill="#000000" font-family="sans-serif" font-size="15.75" lengthAdjust="spacing" textLength="22.7483" x="887.6871" y="952.2246">CC</text></g><g class="participant participant-head" data-participant="CN"><rect fill="#E3E3E3" height="36.6987" rx="2.8125" ry="2.8125" style="stroke:#181818;stroke-width:0.5625;" width="38.4983" x="929.5604" y="56.25"/><text fill="#000000" font-family="sans-serif" font-size="15.75" lengthAdjust="spacing" textLength="22.7483" x="937.4354" y="81.1208">CN</text></g><g class="participant participant-tail" data-participant="CN"><rect fill="#E3E3E3" height="36.6987" rx="2.8125" ry="2.8125" style="stroke:#181818;stroke-width:0.5625;" width="38.4983" x="929.5604" y="927.3538"/><text fill="#000000" font-family="sans-serif" font-size="15.75" lengthAdjust="spacing" textLength="22.7483" x="937.4354" y="952.2246">CN</text></g><g class="participant participant-head" data-participant="OUT"><rect fill="#E3E3E3" height="36.6987" rx="2.8125" ry="2.8125" style="stroke:#181818;stroke-width:0.5625;" width="48.9957" x="979.3087" y="56.25"/><text fill="#000000" font-family="sans-serif" font-size="15.75" lengthAdjust="spacing" textLength="33.2457" x="987.1837" y="81.1208">OUT</text></g><g class="participant participant-tail" data-participant="OUT"><rect fill="#E3E3E3" height="36.6987" rx="2.8125" ry="2.8125" style="stroke:#181818;stroke-width:0.5625;" width="48.9957" x="979.3087" y="927.3538"/><text fill="#000000" font-family="sans-serif" font-size="15.75" lengthAdjust="spacing" textLength="33.2457" x="987.1837" y="952.2246">OUT</text></g><g><title>LE</title><rect fill="#FFFFFF" height="530.2859" style="stroke:#181818;stroke-width:1.125;" width="11.25" x="617.9788" y="307.5381"/></g><g class="message" data-participant-1="Developer" data-participant-2="WM"><polygon fill="#181818" points="418.7444,127.0261,429.9944,131.5261,418.7444,136.0261,423.2444,131.5261" style="stroke:#181818;stroke-width:1.125;"/><line style="stroke:#181818;stroke-width:1.125;" x1="23.0043" x2="425.4944" y1="131.5261" y2="131.5261"/><text fill="#000000" font-family="sans-serif" font-size="14.625" lengthAdjust="spacing" textLength="125.805" x="30.8793" y="125.6056">load("txt2img.json")</text></g><g class="message" data-participant-1="Developer" data-participant-2="WM"><polygon fill="#181818" points="418.7444,162.2285,429.9944,166.7285,418.7444,171.2285,423.2444,166.7285" style="stroke:#181818;stroke-width:1.125;"/><line style="stroke:#181818;stroke-width:1.125;" x1="23.0043" x2="425.4944" y1="166.7285" y2="166.7285"/><text fill="#000000" font-family="sans-serif" font-size="14.625" lengthAdjust="spacing" textLength="292.2286" x="30.8793" y="160.808">set_param_by_title("Main_prompt","text","&#8230;")</text></g><g class="message" data-participant-1="Developer" data-participant-2="WM"><polygon fill="#181818" points="418.7444,197.4309,429.9944,201.9309,418.7444,206.4309,423.2444,201.9309" style="stroke:#181818;stroke-width:1.125;"/><line style="stroke:#181818;stroke-width:1.125;" x1="23.0043" x2="425.4944" y1="201.9309" y2="201.9309"/><text fill="#000000" font-family="sans-serif" font-size="14.625" lengthAdjust="spacing" textLength="118.2711" x="30.8793" y="196.0104">execute(ctx=local)</text></g><g class="message" data-participant-1="WM" data-participant-2="EF"><polygon fill="#181818" points="563.4086,232.6333,574.6586,237.1333,563.4086,241.6333,567.9086,237.1333" style="stroke:#181818;stroke-width:1.125;"/><line style="stroke:#181818;stroke-width:1.125;" x1="432.2444" x2="570.1586" y1="237.1333" y2="237.1333"/><text fill="#000000" font-family="sans-serif" font-size="14.625" lengthAdjust="spacing" textLength="117.6641" x="440.1194" y="231.2128">create("local", ctx)</text></g><g class="message" data-participant-1="EF" data-participant-2="WM"><polygon fill="#181818" points="444.6194,267.8357,433.3694,272.3357,444.6194,276.8357,440.1194,272.3357" style="stroke:#181818;stroke-width:1.125;"/><line style="stroke:#181818;stroke-width:1.125;stroke-dasharray:2.25,2.25;" x1="437.8694" x2="575.7836" y1="272.3357" y2="272.3357"/><text fill="#000000" font-family="sans-serif" font-size="14.625" lengthAdjust="spacing" textLength="92.6774" x="451.3694" y="266.4152">LocalExecutor</text></g><g class="message" data-participant-1="WM" data-participant-2="LE"><polygon fill="#181818" points="604.4788,303.0381,615.7288,307.5381,604.4788,312.0381,608.9788,307.5381" style="stroke:#181818;stroke-width:1.125;"/><line style="stroke:#181818;stroke-width:1.125;" x1="432.2444" x2="611.2288" y1="307.5381" y2="307.5381"/><text fill="#000000" font-family="sans-serif" font-size="14.625" lengthAdjust="spacing" textLength="125.1837" x="440.1194" y="301.6176">execute(graph, ctx)</text></g><g class="message" data-participant-1="LE" data-participant-2="SM"><polygon fill="#181818" points="835.3746,338.2405,846.6246,342.7405,835.3746,347.2405,839.8746,342.7405" style="stroke:#181818;stroke-width:1.125;"/><line style="stroke:#181818;stroke-width:1.125;" x1="629.2288" x2="842.1246" y1="342.7405" y2="342.7405"/><text fill="#000000" font-family="sans-serif" font-size="14.625" lengthAdjust="spacing" textLength="192.6458" x="637.1038" y="336.8199">start(opts via ConfigManager)</text></g><g class="message" data-participant-1="SM" data-participant-2="LE"><polygon fill="#181818" points="641.6038,373.4429,630.3538,377.9429,641.6038,382.4429,637.1038,377.9429" style="stroke:#181818;stroke-width:1.125;"/><line style="stroke:#181818;stroke-width:1.125;stroke-dasharray:2.25,2.25;" x1="634.8538" x2="847.7496" y1="377.9429" y2="377.9429"/><text fill="#000000" font-family="sans-serif" font-size="14.625" lengthAdjust="spacing" textLength="146.3428" x="648.3538" y="372.0223">handle(port, pid, base)</text></g><g class="message" data-participant-1="LE" data-participant-2="CC"><polygon fill="#181818" points="885.5612,408.6453,896.8112,413.1453,885.5612,417.6453,890.0612,413.1453" style="stroke:#181818;stroke-width:1.125;"/><line style="stroke:#181818;stroke-width:1.125;" x1="629.2288" x2="892.3112" y1="413.1453" y2="413.1453"/><text fill="#000000" font-family="sans-serif" font-size="14.625" lengthAdjust="spacing" textLength="97.5405" x="637.1038" y="407.2247">compile(graph)</text></g><g class="message" data-participant-1="CC" data-participant-2="LE"><polygon fill="#181818" points="641.6038,443.8477,630.3538,448.3477,641.6038,452.8477,637.1038,448.3477" style="stroke:#181818;stroke-width:1.125;"/><line style="stroke:#181818;stroke-width:1.125;stroke-dasharray:2.25,2.25;" x1="634.8538" x2="897.9362" y1="448.3477" y2="448.3477"/><text fill="#000000" font-family="sans-serif" font-size="14.625" lengthAdjust="spacing" textLength="51.2303" x="648.3538" y="442.4271">payload</text></g><g class="message" data-participant-1="LE" data-participant-2="CN"><polygon fill="#181818" points="935.3095,479.05,946.5595,483.55,935.3095,488.05,939.8095,483.55" style="stroke:#181818;stroke-width:1.125;"/><line style="stroke:#181818;stroke-width:1.125;" x1="629.2288" x2="942.0595" y1="483.55" y2="483.55"/><text fill="#000000" font-family="sans-serif" font-size="14.625" lengthAdjust="spacing" textLength="42.2754" x="637.1038" y="477.6295">open()</text></g><g class="message" data-participant-1="LE" data-participant-2="CN"><polygon fill="#181818" points="935.3095,514.2524,946.5595,518.7524,935.3095,523.2524,939.8095,518.7524" style="stroke:#181818;stroke-width:1.125;"/><line style="stroke:#181818;stroke-width:1.125;" x1="629.2288" x2="942.0595" y1="518.7524" y2="518.7524"/><text fill="#000000" font-family="sans-serif" font-size="14.625" lengthAdjust="spacing" textLength="215.4188" x="637.1038" y="512.8319">post_workflow(payload, client_id)</text></g><g class="message" data-participant-1="CN" data-participant-2="LE"><polygon fill="#181818" points="641.6038,549.4548,630.3538,553.9548,641.6038,558.4548,637.1038,553.9548" style="stroke:#181818;stroke-width:1.125;"/><line style="stroke:#181818;stroke-width:1.125;stroke-dasharray:2.25,2.25;" x1="634.8538" x2="947.6845" y1="553.9548" y2="553.9548"/><text fill="#000000" font-family="sans-serif" font-size="14.625" lengthAdjust="spacing" textLength="65.0341" x="648.3538" y="548.0343">prompt_id</text></g><g class="message" data-participant-1="LE" data-participant-2="CN"><polygon fill="#181818" points="935.3095,584.6572,946.5595,589.1572,935.3095,593.6572,939.8095,589.1572" style="stroke:#181818;stroke-width:1.125;"/><line style="stroke:#181818;stroke-width:1.125;" x1="629.2288" x2="942.0595" y1="589.1572" y2="589.1572"/><text fill="#000000" font-family="sans-serif" font-size="14.625" lengthAdjust="spacing" textLength="202.3934" x="637.1038" y="583.2367">subscribe(prompt_id, observer)</text></g><path d="M594.8465,606.0322 L676.3354,606.0322 L676.3354,616.4846 L665.0854,627.7346 L594.8465,627.7346 L594.8465,606.0322" fill="#EEEEEE" style="stroke:#000000;stroke-width:1.6875;"/><rect fill="none" height="92.1072" style="stroke:#000000;stroke-width:1.6875;" width="384.4622" x="594.8465" y="606.0322"/><text fill="#000000" font-family="sans-serif" font-size="14.625" font-weight="bold" lengthAdjust="spacing" textLength="30.8639" x="611.7215" y="622.9391">loop</text><text fill="#000000" font-family="sans-serif" font-size="12.375" font-weight="bold" lengthAdjust="spacing" textLength="128.6323" x="693.2104" y="621.6361">[until {success|error}]</text><g class="message" data-participant-1="LE" data-participant-2="CN"><polygon fill="#181818" points="935.3095,649.437,946.5595,653.937,935.3095,658.437,939.8095,653.937" style="stroke:#181818;stroke-width:1.125;"/><line style="stroke:#181818;stroke-width:1.125;" x1="629.2288" x2="942.0595" y1="653.937" y2="653.937"/><text fill="#000000" font-family="sans-serif" font-size="14.625" lengthAdjust="spacing" textLength="113.7936" x="637.1038" y="648.0165">status(prompt_id)</text></g><g class="message" data-participant-1="CN" data-participant-2="LE"><polygon fill="#181818" points="641.6038,684.6394,630.3538,689.1394,641.6038,693.6394,637.1038,689.1394" style="stroke:#181818;stroke-width:1.125;"/><line style="stroke:#181818;stroke-width:1.125;stroke-dasharray:2.25,2.25;" x1="634.8538" x2="947.6845" y1="689.1394" y2="689.1394"/><text fill="#000000" font-family="sans-serif" font-size="14.625" lengthAdjust="spacing" textLength="98.3903" x="648.3538" y="683.2189">{state: running}</text></g><g class="message" data-participant-1="LE" data-participant-2="CN"><polygon fill="#181818" points="935.3095,727.7168,946.5595,732.2168,935.3095,736.7168,939.8095,732.2168" style="stroke:#181818;stroke-width:1.125;"/><line style="stroke:#181818;stroke-width:1.125;" x1="629.2288" x2="942.0595" y1="732.2168" y2="732.2168"/><text fill="#000000" font-family="sans-serif" font-size="14.625" lengthAdjust="spacing" textLength="162.5889" x="637.1038" y="726.2963">fetch_outputs(prompt_id)</text></g><g class="message" data-participant-1="CN" data-participant-2="LE"><polygon fill="#181818" points="641.6038,762.9192,630.3538,767.4192,641.6038,771.9192,637.1038,767.4192" style="stroke:#181818;stroke-width:1.125;"/><line style="stroke:#181818;stroke-width:1.125;stroke-dasharray:2.25,2.25;" x1="634.8538" x2="947.6845" y1="767.4192" y2="767.4192"/><text fill="#000000" font-family="sans-serif" font-size="14.625" lengthAdjust="spacing" textLength="51.2018" x="648.3538" y="761.4987">artifacts</text></g><g class="message" data-participant-1="LE" data-participant-2="OUT"><polygon fill="#181818" points="990.3065,798.1216,1001.5565,802.6216,990.3065,807.1216,994.8065,802.6216" style="stroke:#181818;stroke-width:1.125;"/><line style="stroke:#181818;stroke-width:1.125;" x1="629.2288" x2="997.0565" y1="802.6216" y2="802.6216"/><text fill="#000000" font-family="sans-serif" font-size="14.625" lengthAdjust="spacing" textLength="166.6165" x="637.1038" y="796.701">store(prompt_id, artifacts)</text></g><g class="message" data-participant-1="LE" data-participant-2="SM"><polygon fill="#181818" points="835.3746,833.324,846.6246,837.824,835.3746,842.324,839.8746,837.824" style="stroke:#181818;stroke-width:1.125;"/><line style="stroke:#181818;stroke-width:1.125;" x1="623.6038" x2="842.1246" y1="837.824" y2="837.824"/><text fill="#000000" font-family="sans-serif" font-size="14.625" lengthAdjust="spacing" textLength="37.3837" x="631.4788" y="831.9034">stop()</text></g><g class="message" data-participant-1="LE" data-participant-2="WM"><polygon fill="#181818" points="444.6194,868.5264,433.3694,873.0264,444.6194,877.5264,440.1194,873.0264" style="stroke:#181818;stroke-width:1.125;"/><line style="stroke:#181818;stroke-width:1.125;stroke-dasharray:2.25,2.25;" x1="437.8694" x2="622.4788" y1="873.0264" y2="873.0264"/><text fill="#000000" font-family="sans-serif" font-size="14.625" lengthAdjust="spacing" textLength="100.804" x="451.3694" y="867.1058">{state, artifacts}</text></g><g class="message" data-participant-1="WM" data-participant-2="Developer"><polygon fill="#181818" points="35.3793,903.7288,24.1293,908.2288,35.3793,912.7288,30.8793,908.2288" style="stroke:#181818;stroke-width:1.125;"/><line style="stroke:#181818;stroke-width:1.125;stroke-dasharray:2.25,2.25;" x1="28.6293" x2="431.1194" y1="908.2288" y2="908.2288"/><text fill="#000000" font-family="sans-serif" font-size="14.625" lengthAdjust="spacing" textLength="35.7627" x="42.1293" y="902.3082">result</text></g><!--SRC=[RLFBhjem4DtxAwoi4WcgjgiAgTrGK1V0NT3gBYFZJC2znhRi2G_T8lLh-c7zaevD20czcrZoENDcVCual2ZZX1TxlhV6ofstU-3e6s2XGy9ELFQep9RNGeS-KZd5FtnwpvYGQ3t_2WSkGZn0MmUU4GkLL4uOvC_BY3rR_r9hUrmA8xOFZDayCcOda0sfpPFcUS1Op29ZOQNGDze0NwSUKxklpslm1_1ljPbEEn9zdDAF-Ag76mFoiSlJZ- -HyTIWQ_2RC5LKODsh-VWBFNR2jHLLdk49FwhzzjtFO4rM_CyAW6KoizoSIrIe8S-MGfdIKHGEir66S8h7tzz_tgg7v0Fa4a-VTJIcO8oi9dGsdt3fGH2O9IGRSM8LZ7mUjzL3Azl2nUmkk_N2xTew2aGTI8u8Z98WvZe-0CcQt3eC_A04-MPgjMrzBnWbCcubTycft5cF8-vKDU8R4O36lMfDfpJkDOzhru9HKhTY9yxHpuwycd1omUH5xyBPWEMnNR2yhQ3PjGA3fQf8S7KNJFRIRKyWD9iWlThGa3TqnEqcf5MYGRMrZZS6bUQleP4IGlW5tbj_OPptP51W4-uQ1Q6zpgyHXmdtZJ7qKrqOcC6xQa2vAstQhe5AJoDkOqrvX5iXxMHiRFrWzevM30ApZdohe9zdmjkbk0xOgxwanI2qspwQ7aAZyHy0]--></g></svg>